<svg width="148" height="28" viewBox="0 0 148 28" fill="none" xmlns="http://www.w3.org/2000/svg">
<g clip-path="url(#clip0)">
<path d="M16.3729 18.5652C16.0506 18.7681 15.7928 19.0048 15.6316 19.2754C15.5027 19.4783 15.4382 19.6473 15.4382 19.8164C15.4382 19.9855 15.5027 20.1208 15.5994 20.2222C15.6961 20.3237 15.8572 20.3913 16.0184 20.3913C16.1473 20.3913 16.3084 20.3575 16.5018 20.256C16.7597 20.1208 16.9853 19.9517 17.2753 19.715C17.3076 19.2077 17.3076 18.8358 17.3076 18.599C17.3076 18.4976 17.3076 18.3285 17.2753 18.1594C16.9853 18.2271 16.663 18.3623 16.3729 18.5652Z" fill="white"/>
<path d="M10.9904 14.0338C10.6037 13.6956 10.1202 13.4251 9.57232 13.256C9.02441 13.0869 8.44427 13.0193 7.79967 13.0193C7.34845 13.0193 7.02615 13.0531 6.83277 13.1546C6.80054 13.1884 6.76831 13.2222 6.76831 13.256C6.73608 13.3575 6.73608 13.4589 6.73608 13.5265C6.73608 13.5942 6.73608 13.628 6.73608 13.7294C6.76831 14.2029 6.76831 14.6087 6.76831 14.8792V16.2657C6.76831 18.3285 6.80054 19.4782 6.89723 19.7149C6.96169 19.9517 7.1873 20.1546 7.54183 20.3236C7.86413 20.4251 8.18643 20.4927 8.50873 20.4927C8.92772 20.4927 9.34671 20.4251 9.7657 20.2898C10.1847 20.1546 10.5392 19.9855 10.8293 19.7488C11.1516 19.512 11.4094 19.2415 11.6028 18.9372C11.7962 18.6328 11.9573 18.3623 12.0218 18.1256C12.1507 17.7874 12.1829 17.314 12.1829 16.7729C12.1829 16.2318 12.054 15.6908 11.8284 15.1497C11.6673 14.7777 11.4094 14.4058 10.9904 14.0338Z" fill="white"/>
<path d="M26.6221 17.1111C26.7832 17.1111 26.8799 17.0773 26.9444 17.0773C27.0088 17.0096 27.0733 16.942 27.0733 16.8744C27.0733 16.7391 27.041 16.6038 26.9444 16.4347C26.8477 16.2657 26.7187 16.1304 26.5576 16.0628C26.3964 15.9613 26.1708 15.9275 25.9452 15.9275C25.4618 15.9275 25.075 16.0966 24.7849 16.4686C24.5593 16.7391 24.4304 17.0096 24.4304 17.2463H24.7205C24.9139 17.2125 25.5585 17.1787 26.6221 17.1111Z" fill="white"/>
<path d="M29.0387 14.0338C29.2965 9.90821 28.9742 4.83574 25.7512 1.92753C24.3331 0.676324 22.496 0.0338125 20.6266 -3.96685e-06C17.5326 -0.0676368 14.8252 3.00966 14.6963 6.1884C14.6319 7.57487 14.8897 9.0628 15.4376 10.3478C15.2442 9.90821 13.6005 9.36714 13.1815 9.16425C9.73291 7.64251 5.73639 7.27053 2.67454 9.87439C0.0639178 12.1401 -0.612911 15.1159 0.515137 18.4976C0.966357 19.8841 1.77211 21.0676 2.83569 22.0145C5.54301 24.3816 10.4097 25.4299 13.9228 24.8889C28.5874 22.657 35.6458 28.0338 35.6458 28.0338C28.3941 22.3188 29.0387 14.0338 29.0387 14.0338ZM13.2137 18.2609C13.0204 18.7343 12.7948 19.1401 12.4725 19.4783C12.1502 19.8164 11.8279 20.087 11.5056 20.256C11.1833 20.4251 10.6676 20.5942 10.023 20.6956C9.73291 20.7295 9.24946 20.7633 8.5404 20.7633C8.05695 20.7633 7.67019 20.7633 7.38012 20.7295C7.2512 20.7295 7.12228 20.6956 6.99336 20.6956C6.96113 20.6956 6.96113 20.6956 6.9289 20.6956L4.3505 20.7295V20.6956C4.3505 20.6618 4.3505 20.6618 4.3505 20.628V20.5266C4.51165 20.4589 4.6728 20.4251 4.89841 20.3913C5.18848 20.3575 5.41409 20.2899 5.57524 20.1884C5.70416 19.9517 5.73639 19.3768 5.73639 18.4638V17.4831V16.9082V16.4686V15.657L5.70416 13.6618C5.70416 13.4251 5.67193 13.2898 5.60747 13.2222C5.51078 13.1208 5.25294 13.0193 4.83395 12.9517C4.6728 12.9179 4.54388 12.8841 4.51165 12.8502C4.47942 12.8164 4.44719 12.7488 4.44719 12.6812C4.54388 12.6473 4.60834 12.6473 4.64057 12.6473H5.09179H5.3174C5.47855 12.6473 5.6397 12.6473 5.83308 12.6812C6.21984 12.715 6.6066 12.715 7.02559 12.715C7.15451 12.715 7.31566 12.715 7.54127 12.6812C8.12141 12.6473 8.5404 12.6473 8.79824 12.6473C9.31392 12.6473 9.79737 12.6812 10.2486 12.7826C10.6998 12.8841 11.151 13.0531 11.6345 13.3237C11.9245 13.4927 12.2468 13.7633 12.5369 14.1353C12.8592 14.5072 13.0848 14.913 13.246 15.3188C13.4071 15.7584 13.5038 16.2319 13.5038 16.7729C13.4716 17.314 13.3749 17.7874 13.2137 18.2609ZM18.9507 20.2898C18.8218 20.4927 18.6606 20.6618 18.5317 20.7295C18.435 20.7971 18.3061 20.8309 18.1127 20.8309C17.8226 20.8309 17.597 20.7295 17.4359 20.5604C17.3392 20.4589 17.2747 20.256 17.2425 19.9855L16.5334 20.4589C16.2756 20.5942 16.0822 20.6956 15.9533 20.7295C15.7277 20.7971 15.5021 20.7971 15.212 20.7971C14.9864 20.7971 14.8252 20.7295 14.6963 20.5942C14.5674 20.4589 14.5029 20.3237 14.5029 20.1208C14.5029 19.8502 14.6641 19.5121 15.0509 19.1063C15.4054 18.7005 15.8888 18.3961 16.5012 18.1256C16.9202 17.9565 17.178 17.8212 17.2747 17.7874C17.2747 17.6522 17.2747 17.5169 17.2747 17.3478C17.2747 16.8406 17.2103 16.4686 17.0491 16.2995C16.888 16.1304 16.6946 16.029 16.4045 16.029C16.1144 16.029 15.8566 16.1304 15.5988 16.3671C15.4376 16.5024 15.3409 16.7729 15.2442 17.1449C15.212 17.2464 15.1798 17.3816 15.1153 17.4831C14.9219 17.5845 14.793 17.6522 14.6963 17.6522C14.5996 17.6522 14.5352 17.6184 14.4385 17.5845C14.4063 17.5507 14.374 17.5169 14.374 17.4831C14.374 17.3816 14.5029 17.1449 14.7286 16.7729C14.9542 16.401 15.2442 16.1304 15.5988 15.9275C15.9533 15.7246 16.2756 15.657 16.5334 15.657C16.888 15.657 17.1458 15.6908 17.3392 15.7584C17.5003 15.8261 17.6615 15.9275 17.7904 16.0966C17.9193 16.2657 18.016 16.4348 18.0482 16.6377C18.0805 16.7391 18.0805 17.0435 18.0805 17.6184L18.0482 18.5652V19.2754C18.0482 19.3768 18.0482 19.4444 18.0482 19.5121C18.0482 19.6473 18.0482 19.715 18.0482 19.7826C18.0482 19.9179 18.0805 20.0193 18.1772 20.1208C18.2416 20.1884 18.3383 20.256 18.4672 20.256C18.6284 20.256 18.7573 20.1884 18.8862 20.0193L18.9507 19.9179C18.9829 19.9179 19.0151 19.8841 19.0796 19.8841C19.1118 19.9517 19.1118 19.9855 19.1118 19.9855C19.1118 20.0531 19.0474 20.1546 18.9507 20.2898ZM22.9794 20.256C22.786 20.4589 22.5927 20.5942 22.3671 20.6956C22.1414 20.7971 21.8191 20.8309 21.4324 20.8309C21.1745 20.8309 20.9489 20.7633 20.7556 20.6618C20.5622 20.5266 20.4655 20.3913 20.401 20.2222C20.3366 20.0531 20.3366 19.6812 20.3366 19.1063L20.3688 17.7198V17.0435V16.8068C20.3688 16.7053 20.3688 16.57 20.3688 16.4686H20.2721L19.7564 16.5024H19.692C19.6597 16.5024 19.5953 16.5024 19.5953 16.4686C19.563 16.4348 19.563 16.4348 19.563 16.401C19.563 16.3671 19.563 16.2995 19.5953 16.2657C19.6275 16.2319 19.7242 16.1981 19.8853 16.1304C19.982 16.0966 20.111 15.9952 20.2721 15.8599C20.401 15.7246 20.5299 15.5894 20.6266 15.4541C20.6911 15.3865 20.7556 15.2174 20.8522 14.9807C20.9167 14.8116 20.9812 14.6763 21.0134 14.6087H21.2068L21.239 15.1836V15.9275C21.3035 15.9275 21.3679 15.9275 21.4002 15.9275C21.4968 15.9275 21.7225 15.9275 22.0125 15.8937C22.2059 15.8937 22.3993 15.8599 22.5927 15.8599C22.6894 15.8599 22.786 15.8599 22.9794 15.8599C22.9794 15.9275 22.9794 15.9952 22.9794 16.0628C22.9794 16.1304 22.9794 16.1981 22.9472 16.2995H22.8505L21.8836 16.3333H21.4002H21.2712C21.239 16.4348 21.2068 16.57 21.2068 16.7053L21.239 17.6184V19.2415C21.239 19.6812 21.3035 19.9517 21.4002 20.087C21.4968 20.2222 21.658 20.2898 21.8836 20.2898C21.9803 20.2898 22.2059 20.256 22.496 20.1884C22.5927 20.1546 22.7216 20.087 22.8505 19.9855H22.8827C22.915 19.9855 22.9472 19.9855 22.9794 20.0193C23.0117 20.0531 23.0117 20.087 23.0117 20.1208L22.9794 20.256ZM27.9751 19.7826C27.7817 20.0193 27.5561 20.2222 27.266 20.3913C26.9759 20.5604 26.6859 20.6956 26.3958 20.7971C26.2669 20.8309 26.009 20.8647 25.6867 20.8647C25.3967 20.8647 25.1066 20.7971 24.8165 20.6956C24.3975 20.5266 24.043 20.2222 23.8174 19.8164C23.5596 19.4106 23.4629 18.9372 23.4629 18.3623C23.4629 18.1932 23.4951 17.9565 23.5596 17.6522C23.624 17.3816 23.7529 17.0773 23.9463 16.7391C24.0752 16.5362 24.2042 16.3333 24.3975 16.1981C24.6554 15.9952 24.881 15.8599 25.0421 15.7923C25.3 15.6908 25.6223 15.6232 25.9768 15.6232C26.3636 15.6232 26.6859 15.6908 26.9437 15.8261C27.266 15.9952 27.5238 16.2657 27.685 16.5362C27.8461 16.8406 27.9428 17.1111 27.9428 17.3478V17.4493L25.4289 17.4831H24.9454C24.7521 17.4831 24.5587 17.4831 24.3653 17.5169C24.3331 17.6522 24.3008 17.7198 24.3008 17.7536V17.8213V17.8889V18.1932C24.3008 18.4299 24.3653 18.7681 24.5587 19.1063C24.7198 19.4783 24.9454 19.7488 25.2355 19.9517C25.5256 20.1546 25.9123 20.256 26.3636 20.256C26.5892 20.256 26.7826 20.2222 26.9437 20.1546C27.0726 20.1208 27.2982 20.0193 27.5561 19.8502L28.0073 19.4783L28.0395 19.715C28.0073 19.7488 28.0073 19.7488 27.9751 19.7826Z" fill="white"/>
<path d="M41.3833 19.7827C41.2222 19.8503 41.061 19.9179 40.8999 19.9517C40.771 20.0194 40.6098 20.0532 40.5131 20.087C40.3842 20.1208 40.2875 20.1546 40.1586 20.1546C40.0619 20.1546 39.933 20.1884 39.8363 20.1884C39.7074 20.1884 39.5785 20.1546 39.4818 20.1208C39.3851 20.087 39.2884 19.9855 39.2239 19.8841C39.1595 19.7827 39.095 19.6136 39.0628 19.4445C39.0305 19.2754 38.9983 19.0387 38.9983 18.7682V18.4638C38.9983 18.3285 38.9983 18.1595 38.9983 17.9566C38.9983 17.7537 38.9983 17.5846 38.9983 17.3479C38.9983 17.145 38.9983 16.9083 38.9983 16.7054C38.9983 16.5025 38.9983 16.2657 38.9983 16.0628C38.9983 15.8599 38.9983 15.657 38.9983 15.488C38.9983 15.3189 38.9983 15.1498 38.9983 15.0484C38.9983 14.7778 39.0305 14.5073 39.0305 14.2368C39.0305 13.9662 39.0628 13.6957 39.095 13.459H39.0628C39.0305 13.5604 38.9661 13.6957 38.9016 13.831C38.8372 13.9662 38.7727 14.1353 38.676 14.3044C38.4826 14.744 38.257 15.2174 38.0314 15.6909C37.8058 16.1643 37.5802 16.6715 37.3868 17.1788C37.1612 17.686 36.9356 18.1933 36.71 18.7005C36.4844 19.2078 36.2588 19.715 36.0332 20.2561H35.872C35.8076 20.087 35.7753 19.9179 35.6786 19.715C35.6142 19.5121 35.5175 19.2754 35.453 19.0049C35.3563 18.7682 35.2919 18.4976 35.1952 18.2271C35.0985 17.9566 35.0018 17.686 34.9051 17.3817C34.8084 17.1112 34.7117 16.8068 34.615 16.5363C34.5184 16.2657 34.4217 15.9952 34.325 15.7247C34.2283 15.4542 34.1316 15.2174 34.0671 14.9807C33.9704 14.744 33.906 14.5411 33.8415 14.372C33.7771 14.1691 33.7126 13.9662 33.6481 13.7971C33.5837 13.6281 33.5515 13.4928 33.5192 13.3575H33.487C33.487 13.4252 33.487 13.4928 33.487 13.5604C33.487 13.6281 33.487 13.6957 33.487 13.7971V14.372C33.487 14.744 33.487 15.116 33.4548 15.488C33.4548 15.8599 33.4225 16.2319 33.4225 16.6039C33.3903 16.9759 33.3903 17.3479 33.3581 17.686C33.3258 18.0242 33.2936 18.3624 33.2614 18.6329C33.2292 18.8696 33.2292 19.0725 33.1969 19.2416C33.1647 19.4107 33.1647 19.5459 33.1325 19.6812C33.1002 19.7827 33.068 19.8841 33.0358 19.9517C33.0035 20.0194 32.9713 20.0532 32.9069 20.087C32.8424 20.1208 32.7779 20.1546 32.7135 20.1546C32.649 20.1546 32.5523 20.1546 32.4234 20.1546H32.3267C32.2945 20.1546 32.2945 20.1546 32.2623 20.1546C32.23 20.1546 32.1978 20.1546 32.1333 20.1546L32.0689 20.1208C32.1656 19.8841 32.2945 19.6474 32.3589 19.3769C32.4556 19.1063 32.5201 18.802 32.5846 18.4976C32.649 18.1933 32.7135 17.8551 32.7457 17.5508C32.7779 17.2126 32.8424 16.8744 32.8746 16.5701C32.9069 16.2319 32.9391 15.9276 32.9391 15.5894C32.9713 15.2513 32.9713 14.9469 32.9713 14.6764C32.9713 14.372 32.9713 14.1353 33.0035 13.8648C33.0035 13.6281 33.0035 13.3913 33.0035 13.2223C33.0035 13.1208 33.0035 13.0194 32.9713 12.9179C32.9391 12.8503 32.9391 12.7827 32.8746 12.7488C32.8424 12.715 32.7779 12.6812 32.7135 12.6474C32.649 12.6136 32.5523 12.6136 32.4234 12.6136C32.3589 12.6136 32.2623 12.6136 32.1656 12.6136C32.0689 12.6136 31.94 12.6474 31.8433 12.6474L31.811 12.343C32.23 12.2416 32.6168 12.174 32.8746 12.1401C33.1647 12.1063 33.3903 12.0725 33.5515 12.0725C33.6481 12.0725 33.7126 12.0725 33.7771 12.1063C33.8415 12.1063 33.906 12.1401 33.9382 12.174C33.9704 12.2078 34.0349 12.2416 34.0671 12.3092C34.0994 12.3769 34.1316 12.4445 34.1638 12.5459C34.2927 12.8841 34.4217 13.2561 34.5506 13.6281C34.6795 14 34.8407 14.4058 34.9696 14.8116C35.1307 15.2174 35.2596 15.6232 35.4208 16.029C35.5819 16.4348 35.7109 16.8406 35.8398 17.2126C35.9042 17.3479 35.9365 17.517 35.9687 17.6184C36.0009 17.7537 36.0654 17.8551 36.0976 17.9566C36.1299 18.058 36.1621 18.1595 36.1943 18.2609C36.2265 18.3624 36.2588 18.4638 36.291 18.5314H36.3232C36.3555 18.43 36.3877 18.3285 36.4521 18.2271C36.4844 18.1256 36.5488 18.0242 36.5811 17.9227C36.6133 17.8213 36.6778 17.7199 36.7422 17.5846C36.8067 17.4831 36.8711 17.3479 36.9356 17.1788C37.0967 16.8068 37.2579 16.4348 37.4513 16.029C37.6447 15.6232 37.8058 15.2174 37.9992 14.8116C38.1926 14.4058 38.3859 13.9662 38.5793 13.5604C38.7727 13.1208 38.9661 12.715 39.1595 12.2754C39.1917 12.2416 39.2239 12.174 39.2562 12.174C39.2884 12.1401 39.3206 12.1063 39.3851 12.1063C39.4173 12.0725 39.4818 12.0725 39.514 12.0725C39.5462 12.0725 39.6107 12.0725 39.6429 12.0725C39.7074 12.0725 39.7718 12.0725 39.8685 12.1063C39.9652 12.1401 40.0297 12.1401 40.0941 12.174C40.0619 12.5459 40.0297 12.9179 39.9974 13.2561C39.9652 13.5942 39.933 13.9324 39.933 14.2706C39.9008 14.6087 39.9008 14.9131 39.8685 15.2513C39.8685 15.5556 39.8363 15.8938 39.8363 16.2319C39.8363 16.5701 39.8363 16.9083 39.8363 17.2464C39.8363 17.5846 39.8363 17.9566 39.8363 18.3285C39.8363 18.5653 39.8363 18.7682 39.8685 18.9711C39.9008 19.1401 39.933 19.2754 39.9652 19.4107C40.0297 19.5121 40.0941 19.6136 40.1908 19.6474C40.2875 19.715 40.3842 19.715 40.5131 19.715C40.5776 19.715 40.6098 19.715 40.642 19.715C40.6743 19.715 40.7387 19.715 40.771 19.715C40.8354 19.715 40.8677 19.6812 40.9321 19.6812C40.9966 19.6812 41.061 19.6474 41.1255 19.6136L41.3833 19.7827Z" fill="white"/>
<path d="M45.7665 18.6666C45.7665 18.6666 45.7988 18.7004 45.831 18.7004C45.8632 18.7004 45.8632 18.7343 45.8954 18.7343C45.9277 18.7343 45.9277 18.7681 45.9599 18.8019C45.9599 18.8357 45.9921 18.8357 45.9921 18.8695V18.9033C45.8632 19.1062 45.7021 19.2753 45.5409 19.4106C45.3798 19.5459 45.2186 19.6811 45.0252 19.7826C44.8641 19.884 44.6707 19.9517 44.4773 19.9855C44.2839 20.0193 44.1228 20.0531 43.9294 20.0531C43.6394 20.0531 43.3493 19.9855 43.0914 19.8502C42.8336 19.7149 42.608 19.5459 42.4468 19.343C42.2535 19.1401 42.1245 18.8695 42.0278 18.599C41.9312 18.2947 41.8667 17.9903 41.8667 17.6521C41.8667 17.3816 41.8989 17.1111 41.9634 16.8405C42.0279 16.57 42.0923 16.2995 42.2212 16.0628C42.3179 15.8261 42.4791 15.5893 42.6402 15.3864C42.8014 15.1835 42.9948 14.9806 43.1881 14.8454C43.3815 14.6763 43.6071 14.5748 43.865 14.4734C44.1228 14.372 44.3806 14.3381 44.6707 14.3381C44.8641 14.3381 45.0252 14.372 45.2186 14.4058C45.3798 14.4396 45.5409 14.541 45.6698 14.6087C45.7988 14.7101 45.8955 14.8116 45.9599 14.9468C46.0244 15.0821 46.0888 15.2512 46.0888 15.4203C46.0888 15.6908 45.9921 15.8937 45.831 16.0966C45.6698 16.2995 45.4442 16.4686 45.1219 16.6038C44.8319 16.7391 44.4773 16.8405 44.0906 16.942C43.7038 17.0096 43.2526 17.0773 42.8014 17.1111V17.1787C42.8014 17.5169 42.8336 17.7874 42.9303 18.0579C43.027 18.3285 43.1237 18.5652 43.2526 18.7343C43.3815 18.9372 43.5749 19.0724 43.7683 19.1739C43.9617 19.2753 44.1873 19.343 44.3806 19.343C44.6062 19.343 44.8319 19.2753 45.0897 19.1739C45.2831 19.1062 45.5409 18.9033 45.7665 18.6666ZM45.0575 15.5893C45.0575 15.4879 45.0252 15.3526 44.993 15.2512C44.9608 15.1497 44.8963 15.0483 44.8319 14.9806C44.7674 14.913 44.6707 14.8454 44.574 14.8116C44.4773 14.7777 44.3806 14.7439 44.2517 14.7439C44.0906 14.7439 43.9294 14.7777 43.8005 14.8454C43.6716 14.913 43.5427 14.9806 43.446 15.0821C43.3493 15.1835 43.2526 15.285 43.1559 15.4203C43.0592 15.5555 42.9948 15.6908 42.9625 15.8599C42.8981 15.9951 42.8658 16.1642 42.8336 16.3333C42.8014 16.5024 42.7691 16.6377 42.7691 16.8067C43.1237 16.7729 43.446 16.7391 43.736 16.6715C44.0261 16.6038 44.2517 16.5362 44.4451 16.4348C44.6385 16.3333 44.7996 16.2319 44.8963 16.0966C45.0252 15.9275 45.0575 15.7584 45.0575 15.5893Z" fill="white"/>
<path d="M49.3762 12.6473C49.4729 12.8502 49.6019 13.0531 49.763 13.2898C49.8919 13.5265 50.0531 13.7632 50.2142 14.0338C50.3754 14.3043 50.5365 14.5748 50.6977 14.8453C50.8588 15.1159 51.0522 15.4202 51.2133 15.6908C51.3745 15.9613 51.5679 16.2656 51.729 16.5362C51.8902 16.8067 52.0513 17.0772 52.2125 17.3478C52.3736 17.6183 52.5348 17.855 52.6637 18.0579C52.7926 18.2946 52.9538 18.4637 53.0505 18.6666C53.0505 18.0241 53.0505 17.4492 53.0505 16.942C53.0505 16.4347 53.0505 15.9613 53.0505 15.5217C53.0505 15.1159 53.0505 14.7439 53.0827 14.4057C53.0827 14.0676 53.1149 13.797 53.1149 13.5603C53.1149 13.3236 53.1471 13.1207 53.1794 12.9516C53.2116 12.7825 53.2116 12.6473 53.2438 12.512C53.2761 12.4106 53.3083 12.3429 53.3405 12.2753C53.3728 12.2077 53.4372 12.1738 53.4694 12.14C53.5339 12.1062 53.5661 12.0724 53.6306 12.0724C53.6951 12.0724 53.7595 12.0386 53.824 12.0386C53.9851 12.0386 54.1463 12.0724 54.3074 12.14V12.1738C54.1785 12.3429 54.0818 12.5458 54.0174 12.8164C53.9207 13.0869 53.8562 13.3574 53.7917 13.6956C53.7273 13.9999 53.6951 14.3381 53.6306 14.7101C53.5984 15.0482 53.5661 15.4202 53.5339 15.7584C53.5017 16.0966 53.5017 16.4347 53.4694 16.7729C53.4372 17.111 53.4372 17.3816 53.4372 17.6183C53.4372 17.855 53.4372 18.0579 53.4372 18.2608C53.4372 18.4637 53.4372 18.7004 53.4372 18.9033C53.4372 19.1062 53.4372 19.3429 53.4372 19.5458C53.4372 19.7487 53.4372 19.9854 53.4372 20.2222L52.986 20.2898H52.9215C52.8571 20.1883 52.7604 20.0531 52.6315 19.884C52.5348 19.7149 52.4059 19.512 52.2447 19.3091C52.1158 19.1062 51.9546 18.8695 51.7935 18.599C51.6323 18.3284 51.4712 18.0917 51.2778 17.7874C51.1167 17.5168 50.9233 17.2125 50.7621 16.942C50.5688 16.6376 50.4076 16.3671 50.2465 16.0966C50.0853 15.826 49.8919 15.5217 49.7308 15.2511C49.5696 14.9806 49.4085 14.7439 49.2796 14.5072C49.1184 14.2705 48.9895 14.0676 48.8928 13.8647C48.7639 13.6618 48.6672 13.4927 48.6027 13.3574C48.6027 13.8647 48.6027 14.3719 48.5705 14.8792C48.5705 15.3864 48.5383 15.8598 48.5383 16.2995C48.506 16.7391 48.506 17.1787 48.4738 17.5845C48.4416 17.9903 48.4416 18.3623 48.4093 18.7342C48.3771 18.971 48.3771 19.2077 48.3449 19.3767C48.3127 19.5458 48.3127 19.6811 48.2804 19.8164C48.2482 19.9178 48.216 20.0193 48.1837 20.0869C48.1515 20.1545 48.087 20.2222 48.0548 20.256C47.9904 20.2898 47.9259 20.3236 47.8614 20.3236C47.797 20.3236 47.7003 20.3236 47.6036 20.3236H47.5069C47.4747 20.3236 47.4747 20.3236 47.4424 20.3236C47.4102 20.3236 47.378 20.3236 47.3458 20.3236L47.2813 20.2898C47.378 20.0531 47.4747 19.8164 47.5391 19.512C47.6036 19.2415 47.7003 18.9371 47.7325 18.599C47.797 18.2946 47.8292 17.9565 47.8937 17.6183C47.9259 17.2801 47.9904 16.942 47.9904 16.6038C48.0226 16.2656 48.0548 15.9275 48.0548 15.5893C48.087 15.2511 48.087 14.9468 48.087 14.6424C48.087 14.3381 48.087 14.0676 48.1193 13.797C48.1193 13.5265 48.1193 13.3236 48.1193 13.1207C48.1193 13.0193 48.1193 12.9178 48.087 12.8502C48.087 12.7825 48.0548 12.7149 47.9904 12.6811C47.9581 12.6473 47.8937 12.6135 47.8292 12.5796C47.7647 12.5458 47.6681 12.5458 47.5391 12.5458C47.4424 12.5458 47.378 12.5458 47.2491 12.5458C47.1524 12.5458 47.0235 12.5796 46.8945 12.5796L46.8623 12.2753C47.0557 12.2415 47.2491 12.1738 47.4102 12.14C47.5714 12.1062 47.7325 12.0724 47.8614 12.0386C47.9904 12.0048 48.1193 12.0048 48.216 11.971C48.3127 11.971 48.4093 11.9371 48.506 11.9371C48.6027 11.9371 48.6672 11.9371 48.7316 11.971C48.7961 12.0048 48.8606 12.0386 48.925 12.0724C48.9895 12.1062 49.0217 12.1738 49.0862 12.2753C49.2473 12.4444 49.3118 12.5458 49.3762 12.6473Z" fill="white"/>
<path d="M54.9844 17.8551C54.9844 17.6184 55.0166 17.3817 55.0488 17.1112C55.1133 16.8745 55.1778 16.6039 55.2744 16.401C55.3711 16.1643 55.5001 15.9614 55.629 15.7585C55.7579 15.5556 55.9513 15.3865 56.1124 15.2175C56.3058 15.0484 56.4992 14.9469 56.757 14.8455C57.0149 14.744 57.2405 14.7102 57.4983 14.7102C57.7884 14.7102 58.0784 14.7778 58.3041 14.9131C58.5297 15.0484 58.723 15.2175 58.8842 15.4203C59.0453 15.6232 59.1743 15.86 59.2387 16.1305C59.3354 16.401 59.3676 16.6716 59.3676 16.9759C59.3676 17.2126 59.3354 17.4493 59.3032 17.7199C59.2387 17.9566 59.1743 18.2271 59.0776 18.43C58.9809 18.6667 58.852 18.8696 58.723 19.0725C58.5941 19.2754 58.4007 19.4445 58.2396 19.6136C58.0462 19.7827 57.8528 19.8841 57.595 19.9856C57.3694 20.087 57.1115 20.1208 56.8537 20.1208C56.5636 20.1208 56.2736 20.0532 56.048 19.9179C55.8224 19.7827 55.629 19.6136 55.4678 19.4107C55.3067 19.2078 55.1778 18.9711 55.1133 18.7005C55.0166 18.43 54.9844 18.1595 54.9844 17.8551ZM55.8224 17.517C55.8224 17.686 55.8224 17.8551 55.8546 18.0242C55.8868 18.1933 55.919 18.3624 55.9835 18.4976C56.048 18.6667 56.1124 18.802 56.1769 18.9373C56.2413 19.0725 56.338 19.2078 56.467 19.2754C56.5636 19.3769 56.6926 19.4445 56.8215 19.5121C56.9504 19.5798 57.1116 19.6136 57.2727 19.6136C57.4339 19.6136 57.595 19.5798 57.7239 19.5121C57.8528 19.4445 57.9818 19.3431 58.0784 19.2078C58.1751 19.0725 58.2396 18.9373 58.3041 18.7682C58.3685 18.5991 58.433 18.43 58.4652 18.2609C58.4974 18.0918 58.5297 17.9228 58.5297 17.7537C58.5297 17.5846 58.5619 17.4155 58.5619 17.2803C58.5619 17.1112 58.5619 16.9421 58.5297 16.773C58.4974 16.6039 58.4652 16.4348 58.4007 16.2996C58.3363 16.1305 58.2718 15.9952 58.2074 15.86C58.1429 15.7247 58.0462 15.6232 57.9173 15.5218C57.7884 15.4204 57.6917 15.3527 57.5628 15.2851C57.4339 15.2175 57.2727 15.1836 57.1116 15.1836C56.9504 15.1836 56.7893 15.2175 56.6603 15.2851C56.5314 15.3527 56.4025 15.4542 56.3058 15.5894C56.2091 15.7247 56.1447 15.86 56.0802 16.029C56.0157 16.1981 55.9513 16.3672 55.919 16.5363C55.8868 16.7054 55.8546 16.8745 55.8546 17.0435C55.8546 17.2126 55.8224 17.3817 55.8224 17.517Z" fill="white"/>
<path d="M64.2988 19.7826C64.2344 19.343 64.1377 18.8695 64.041 18.3623C63.9443 17.8889 63.8476 17.3816 63.7187 16.9082C63.6542 17.0435 63.5898 17.2125 63.4931 17.3816C63.3964 17.5507 63.3319 17.7198 63.2352 17.8889C63.1385 18.058 63.0419 18.227 62.9452 18.4299C62.8485 18.599 62.7518 18.7681 62.6551 18.9372C62.5584 19.1063 62.4617 19.2753 62.365 19.4106C62.2683 19.5797 62.1717 19.715 62.075 19.8164L61.6882 19.7826C61.656 19.5459 61.6237 19.3092 61.5915 19.0724C61.5593 18.8357 61.4948 18.5652 61.4626 18.2947C61.4304 18.0241 61.3659 17.7874 61.3014 17.5507C61.237 17.314 61.2047 17.0773 61.1403 16.8406C61.0758 16.6038 61.0436 16.4009 60.9791 16.2319C60.9469 16.029 60.8825 15.8937 60.8502 15.7584C60.818 15.5894 60.7535 15.4879 60.7213 15.3865C60.6891 15.285 60.6246 15.2174 60.5924 15.1497C60.5602 15.0821 60.4957 15.0483 60.4635 15.0483C60.399 15.0145 60.3668 15.0145 60.3023 15.0145C60.2379 15.0145 60.1412 15.0145 60.0445 15.0483C59.9478 15.0483 59.8511 15.0821 59.7222 15.1159L59.6577 14.8454C59.98 14.7439 60.2379 14.6425 60.4957 14.5749C60.7213 14.5072 60.8824 14.4734 60.9791 14.4734C61.0436 14.4734 61.1081 14.4734 61.1403 14.5072C61.2047 14.541 61.237 14.5749 61.3014 14.6087C61.3337 14.6763 61.3981 14.7439 61.4304 14.8116C61.4626 14.913 61.5271 15.0145 61.5593 15.1497C61.5915 15.2512 61.6237 15.3865 61.656 15.5217C61.6882 15.657 61.7527 15.8261 61.7849 16.029C61.8171 16.2319 61.8816 16.4348 61.9138 16.6377C61.946 16.8406 62.0105 17.0773 62.0427 17.314C62.075 17.5507 62.1394 17.7874 62.1716 18.0241C62.2039 18.2608 62.2361 18.4976 62.2683 18.7343C62.3328 18.6666 62.365 18.5652 62.4617 18.4299C62.5262 18.2947 62.5906 18.1932 62.6873 18.058C62.7518 17.9227 62.8485 17.7874 62.9129 17.6183C62.9774 17.4831 63.0419 17.314 63.1063 17.1787C63.1708 17.0435 63.2352 16.9082 63.2675 16.8067C63.2997 16.6715 63.3642 16.57 63.3642 16.5024C63.3642 16.4348 63.3964 16.4009 63.3964 16.3333C63.3964 16.2657 63.3964 16.2319 63.3964 16.1642C63.3964 16.0966 63.3964 15.9951 63.3964 15.9275C63.3964 15.8261 63.3642 15.7584 63.3642 15.657C63.3642 15.5555 63.3319 15.4879 63.2997 15.3865C63.2675 15.285 63.2675 15.2174 63.2352 15.1497C63.203 15.0821 63.203 15.0483 63.203 14.9807C63.203 14.913 63.2352 14.8454 63.2675 14.8116C63.3319 14.7778 63.3964 14.7439 63.5253 14.7439C63.5898 14.7439 63.6865 14.7439 63.7509 14.7778C63.8154 14.8116 63.9121 14.8116 63.9765 14.8792C64.041 15.1836 64.1377 15.4879 64.2021 15.8261C64.2666 16.1642 64.3633 16.4686 64.4277 16.8067C64.4922 17.1449 64.5889 17.4831 64.6534 17.7874C64.7178 18.1256 64.7823 18.4299 64.8467 18.7343C65.0079 18.4637 65.169 18.1932 65.3302 17.9227C65.4913 17.6522 65.6203 17.3816 65.7492 17.0773C65.8781 16.8067 65.9748 16.5362 66.0392 16.2657C66.1037 15.9951 66.1682 15.7246 66.1682 15.4541C66.1682 15.3526 66.1682 15.2512 66.1359 15.1497C66.1359 15.0483 66.1037 14.9468 66.0715 14.8454C66.0392 14.7439 65.9748 14.6763 65.9426 14.5749C65.8781 14.5072 65.8136 14.4058 65.7169 14.3381L65.7492 14.2367C65.7814 14.2367 65.8459 14.2367 65.8781 14.2367C65.9103 14.2367 65.9426 14.2367 66.007 14.2367C66.3293 14.2367 66.5549 14.3043 66.7161 14.4734C66.8772 14.6087 66.9417 14.8454 66.9417 15.1159C66.9417 15.3188 66.9095 15.5555 66.8128 15.7923C66.7483 16.0628 66.6194 16.3333 66.4905 16.6038C66.3615 16.8744 66.2004 17.1787 66.0392 17.4831C65.8781 17.7874 65.7169 18.0579 65.5236 18.3285C65.3624 18.599 65.169 18.8695 65.0079 19.1063C64.8467 19.343 64.6856 19.5459 64.5567 19.7488L64.2988 19.7826Z" fill="white"/>
<path d="M136.397 17.8213C135.881 18.2271 135.334 18.5991 134.786 18.9372C134.657 19.0049 134.528 19.1063 134.367 19.2078C135.14 18.4976 135.978 17.5846 135.108 16.9759C134.496 16.5363 132.755 16.773 132.884 17.7875C132.626 17.2802 132.401 16.773 132.433 16.1981C132.465 15.7585 131.82 15.7585 131.788 16.1981C131.692 17.2464 132.401 18.2609 132.82 19.174C132.884 19.3092 132.981 19.4445 133.045 19.5459C133.013 19.5798 132.981 19.6474 132.916 19.715C132.82 19.8841 132.916 20.1885 133.11 20.2223C133.625 20.3237 134.141 20.087 134.592 19.8165C135.366 19.3769 136.107 18.8358 136.784 18.2947C137.203 18.0242 136.719 17.5508 136.397 17.8213ZM133.561 17.8551C133.432 17.4831 135.172 17.1112 134.689 17.9566C134.399 18.43 133.948 18.7343 133.561 19.1063C133.529 19.0725 133.496 19.0049 133.464 18.9711C133.4 18.8358 133.368 18.7005 133.303 18.5653C133.239 18.4638 133.174 18.3286 133.142 18.2271C133.335 18.3286 133.69 18.1595 133.561 17.8551Z" fill="white"/>
<path d="M143.681 12.0725C142.553 12.1063 141.328 12.5459 140.265 12.8841C139.556 13.1208 138.299 13.5604 138.299 14.5411C138.299 14.9807 138.943 14.9807 138.943 14.5411C138.943 13.5266 142.134 13.0532 142.843 12.8841C143.037 12.8503 143.23 12.8164 143.423 12.7826C144.551 12.5797 143.166 14.2706 143.004 14.4396C142.489 15.0145 141.844 15.4203 141.167 15.7923C141.328 15.2174 141.393 14.6087 141.651 14.0677C141.812 13.6619 141.264 13.3237 141.103 13.7295C140.748 14.5073 140.748 15.4541 140.329 16.1981C140.104 16.2995 139.878 16.3672 139.685 16.4686C139.298 16.6377 139.459 17.2802 139.846 17.1111C140.071 17.0097 140.265 16.942 140.49 16.8406C140.587 16.8406 140.684 16.8068 140.781 16.7053C142.102 16.0966 143.294 15.3527 144.165 14.0677C144.713 13.2222 144.938 12.0387 143.681 12.0725Z" fill="white"/>
<path d="M143.295 16.0628C142.94 15.8599 142.618 16.4348 142.972 16.6377C144.036 17.2802 145.132 17.7875 146.195 18.43C147.001 18.8696 146.775 19.6474 145.97 19.8503C145.099 20.0532 144.229 20.1884 143.359 20.2561C142.199 20.3575 140.942 20.459 139.878 19.9517C138.428 19.3092 139.524 16.5701 139.717 15.3865C139.781 14.9469 139.169 14.7778 139.105 15.2174C138.879 16.8068 137.912 18.7005 138.976 20.1208C139.975 21.4396 142.618 21.0338 143.907 20.8986C144.906 20.7971 147.903 20.7633 148.032 19.343C148.129 17.9565 144.165 16.6039 143.295 16.0628Z" fill="white"/>
<path d="M73.5488 13.7294C72.034 12.5796 71.2927 10.9226 70.8415 9.09655C70.7448 8.69075 70.1002 8.85983 70.2291 9.26563C70.7448 11.2946 71.615 13.0531 73.2588 14.3043C73.5811 14.5748 73.9034 13.9661 73.5488 13.7294Z" fill="white"/>
<path d="M75.7725 9.26571C75.1279 8.96136 74.3544 9.50242 73.7743 9.80677C73.0652 10.1449 72.2917 10.6522 72.195 11.5314C72.1628 11.971 72.8074 11.971 72.8396 11.5314C72.9363 10.7536 74.7089 9.90822 75.3858 9.84058C75.6114 9.80677 75.2569 11.43 75.2246 11.5652C75.0312 12.3092 74.9668 13.087 74.2255 13.4589C73.8387 13.6618 74.1933 14.2367 74.5478 14.0338C75.4502 13.5604 75.5792 12.6473 75.837 11.7343C75.9659 11.2609 76.4816 9.60387 75.7725 9.26571Z" fill="white"/>
<path d="M78.5443 17.1787C77.5452 18.227 76.6428 19.3768 75.5792 20.3913C75.5792 20.3913 75.5792 20.3913 75.547 20.4251C75.3536 19.9517 75.1602 19.4106 74.999 18.8357C75.0635 18.8357 75.1602 18.8019 75.2247 18.7343C75.6114 18.1932 76.1271 17.7536 76.6428 17.3478C76.9651 17.0773 76.6428 16.5024 76.3205 16.7729C75.7726 17.1787 75.2569 17.6522 74.8379 18.1932C74.6445 17.2802 74.5801 16.3671 74.8057 15.5893C74.9346 15.1836 74.3222 14.9807 74.1933 15.4203C73.7098 17.0435 74.3544 19.1739 74.9346 20.6956C74.9668 20.7633 74.999 20.8309 75.0635 20.8647C74.9346 20.9662 74.8057 21.0338 74.6767 21.1352C73.8388 21.6425 73.6454 20.628 73.5165 20.1546C73.2586 19.2753 73.0975 18.3961 73.0975 17.4831C73.0975 17.0435 72.4529 17.0435 72.4529 17.4831C72.4851 18.7343 72.614 21.9807 74.3544 21.9468C75.0635 21.9468 75.7726 21.2029 76.256 20.7294C77.2229 19.7826 78.0609 18.7005 78.9956 17.7198C79.2856 17.3478 78.8344 16.8744 78.5443 17.1787Z" fill="white"/>
<path d="M84.0234 8.55558C83.959 7.94689 83.7656 7.00003 83.0243 7.00003C81.7996 6.96621 80.0914 8.28505 79.6079 9.43481C79.4468 9.84061 79.9947 10.1788 80.1559 9.77297C80.5426 8.82611 81.7351 8.01452 82.6376 7.71017C83.54 7.40582 83.4433 9.19809 83.4433 9.73916C83.4433 10.4493 83.4433 11.1256 83.4433 11.8358C83.1855 12.0387 82.9599 12.2078 82.702 12.4107C82.412 12.6136 82.0252 12.7826 81.7674 13.0532C81.5417 13.2899 81.2839 13.4928 81.0583 13.6957C80.8971 13.8648 80.6071 14.0677 80.5104 14.2706C80.4459 14.4396 80.4782 14.7102 80.7038 14.7778C80.736 14.7778 80.7682 14.7778 80.8005 14.8116C81.0583 14.8793 81.1872 14.6425 81.1872 14.4735C81.2839 14.372 81.4451 14.2706 81.5095 14.2029C81.7029 14 81.9285 13.8309 82.1219 13.6619C82.5086 13.2899 82.9921 13.0193 83.4111 12.715C83.4111 12.7826 83.4111 12.8841 83.4111 12.9517C83.4111 13.3913 84.0557 13.3913 84.0557 12.9517C84.0557 11.43 84.1524 9.97587 84.0234 8.55558Z" fill="white"/>
<path d="M87.5365 20.9324C87.1175 20.6619 86.6663 20.459 86.2151 20.2223C85.5705 19.8841 85.0548 19.1402 84.5391 18.6329C84.2813 18.3962 84.0557 18.1257 83.83 17.889C83.8623 17.6522 83.6689 17.4493 83.4755 17.4832C83.7978 17.0097 84.1524 16.5701 84.5069 16.0967C84.8936 15.5894 85.1837 14.9807 85.5705 14.4735C85.8283 14.1353 85.2482 13.7972 85.0226 14.1353C84.6036 14.744 84.2813 15.3865 83.83 15.9614C83.54 16.3334 83.2499 16.6716 82.9921 17.0436C82.5408 16.5701 82.0896 16.0967 81.6384 15.6233C81.3483 15.3189 80.8971 15.7923 81.1872 16.0967C81.7996 16.7392 82.4119 17.3817 83.0565 18.0242C82.7342 18.5653 82.3797 19.0725 81.9607 19.546C81.5417 19.9856 81.3806 20.5943 80.9293 21.0001C80.2847 19.715 80.317 17.7199 80.2847 16.3672C80.2525 14.9469 80.1881 13.5605 80.1881 12.1402C80.2525 12.2754 80.3814 12.4107 80.5748 12.3769C81.6062 12.174 82.2185 11.1257 82.9598 10.4493C83.2821 10.1788 82.8309 9.70539 82.5086 9.97592C81.8318 10.5508 81.3161 11.5315 80.4137 11.7344C80.317 11.7682 80.2525 11.802 80.2203 11.9035C80.2203 11.5991 80.2203 11.3286 80.2203 11.0242C80.2203 10.5846 79.5757 10.5846 79.5757 11.0242C79.5757 12.9856 79.6724 14.9469 79.7046 16.9083C79.7368 18.3624 79.8013 20.4252 80.607 21.6426C80.7037 21.8117 80.8971 21.8455 81.0583 21.7779C81.5417 21.5073 81.8318 21.0677 82.1219 20.5943C82.6053 19.8503 83.1532 19.2416 83.6044 18.4977C83.8945 18.802 84.1846 19.1064 84.4746 19.3769C84.8614 19.7827 85.2482 20.2561 85.6994 20.5605C86.2151 20.8986 86.7952 21.1353 87.3109 21.4735C87.5687 21.744 87.891 21.1692 87.5365 20.9324Z" fill="white"/>
<path d="M93.2736 8.25121C92.7579 7.91304 92.1455 7.8116 91.5332 7.71015C90.9208 7.6087 89.9861 7.54106 89.6316 6.93237C89.406 6.56039 88.8581 6.89855 89.0837 7.27053C89.8572 8.65701 91.791 8.08213 92.9513 8.82609C93.3058 9.0628 93.6281 8.45411 93.2736 8.25121Z" fill="white"/>
<path d="M102.233 11.1256C102.105 11.0241 101.943 10.9227 101.814 10.8212C102.169 10.686 102.008 10.0773 101.621 10.1787C101.46 10.2125 101.331 10.2464 101.17 10.2802C100.783 9.97582 100.396 9.63766 99.9773 9.36713C99.1071 8.79225 98.2691 8.18355 97.5601 7.37196C97.27 7.03379 96.8188 7.54104 97.1089 7.84539C97.7857 8.62317 98.5592 9.19805 99.3649 9.77293C99.6872 10.0096 100.01 10.2464 100.332 10.4831C98.946 10.8212 97.5601 11.1256 96.1742 11.5652C96.1742 11.5652 96.1742 11.5652 96.142 11.5652C95.9486 10.686 95.7874 9.77293 95.7552 8.8937C95.723 8.45408 95.0784 8.45408 95.1106 8.8937C95.1751 9.84056 95.304 10.7874 95.5296 11.7343C94.6271 12.0048 93.7247 12.2753 92.79 12.4106C92.5322 12.4444 92.2099 12.4782 91.8554 12.5121C91.8554 11.8357 91.8876 11.1256 91.8876 10.4493C91.8876 10.0096 91.243 10.0096 91.243 10.4493C91.243 11.1594 91.243 11.8695 91.243 12.5459C90.4695 12.6135 89.6637 12.6135 89.1803 12.4782C88.7935 12.3768 88.6001 13.0193 89.0191 13.1208C89.7927 13.3575 90.5017 13.1884 91.2752 13.1546C91.2752 14.0676 91.3075 14.9807 91.4042 15.9275C91.4364 16.4348 91.5008 16.9082 91.5653 17.4154C90.7596 18.227 89.6315 19.1401 89.5348 20.2898C89.5026 20.5265 89.7604 20.6618 89.9538 20.628C91.1141 20.2898 91.3719 21.0338 92.2744 21.2705C92.5 21.3381 92.6611 21.1691 92.6934 20.9323C92.79 19.884 92.5322 18.599 92.2744 17.4831C92.5967 17.1787 92.8867 16.9082 93.0801 16.6715C94.0148 15.5555 94.885 14.2367 95.9486 13.1884C96.2387 14.1691 96.5609 15.1159 96.9155 16.0628C97.0122 16.3333 97.1089 16.6038 97.2378 16.8744C96.8188 17.8889 96.3031 18.8357 96.0453 19.9179C95.9486 20.3575 96.5609 20.5265 96.6576 20.0869C96.851 19.2415 97.1411 18.4299 97.5278 17.6522C98.108 19.0724 98.817 20.4927 99.9129 21.3381C100.106 21.4734 100.332 21.3043 100.396 21.1352C100.59 20.628 100.557 20.1208 100.557 19.5797C100.525 18.6666 100.783 17.686 100.783 16.7391C100.783 16.2995 100.138 16.2995 100.138 16.7391C100.106 17.5507 100.01 18.3285 99.9129 19.1401C99.8484 19.6135 99.9451 20.0193 99.9129 20.4589C99.0427 19.6135 98.4303 18.2608 97.9146 16.9758C97.9468 16.9082 97.9791 16.8406 98.0113 16.8067C98.3014 16.3333 98.3014 15.0483 98.946 14.8792C99.365 14.7778 99.1716 14.1352 98.7848 14.2367C98.0758 14.4058 97.8179 15.3865 97.5923 16.029V16.0628C97.4312 15.5893 97.27 15.1497 97.1411 14.7778C96.851 14 96.6254 13.1884 96.3998 12.343C97.9468 11.9372 99.5261 11.4976 101.073 11.0579C101.363 11.2947 101.653 11.5314 101.943 11.7343C102.266 11.9372 102.588 11.3623 102.233 11.1256ZM91.4364 19.8502C90.9852 19.7488 90.6629 19.7488 90.3083 19.8502C90.5662 19.2753 91.0819 18.6666 91.662 18.1256C91.6942 18.3623 91.7265 18.6328 91.7587 18.8695C91.8231 19.343 91.9521 19.8502 92.0165 20.3236C91.8231 20.1208 91.6942 19.9179 91.4364 19.8502ZM95.6263 12.6135C94.3371 13.8309 93.2735 15.4203 92.1454 16.8067C91.9198 15.6232 91.8876 14.4058 91.8876 13.1884C92.8223 13.1546 93.7247 13.0193 94.6272 12.7826C95.0139 12.6811 95.3684 12.5797 95.7552 12.4782C95.7552 12.5121 95.7552 12.5121 95.7552 12.5459C95.6907 12.5459 95.6585 12.5797 95.6263 12.6135Z" fill="white"/>
<path d="M129.145 10.0097C126.857 9.9082 125.052 8.35265 123.215 7.03381C123.183 6.66183 122.603 6.66183 122.571 7.06762C122.506 7.91303 121.894 8.657 121.475 9.33333C120.991 10.1111 120.798 11.0918 119.992 11.599C119.638 11.8357 119.96 12.4106 120.314 12.1739C121.152 11.6328 121.507 10.7198 121.926 9.84057C122.281 9.09661 122.796 8.48791 123.086 7.71014C123.86 8.2512 124.601 8.82608 125.407 9.33333C125.02 9.77294 124.375 10.0435 123.892 10.2802C123.57 10.4493 123.215 10.6183 122.861 10.7198C122.699 10.7874 122.538 10.8212 122.377 10.8551C122.152 10.9227 122.152 10.7874 122.216 10.9903C122.087 10.5845 121.443 10.7536 121.604 11.1594C121.862 11.9034 122.957 11.3961 123.441 11.1932C124.247 10.8551 125.31 10.4155 125.89 9.73912C125.922 9.70531 125.922 9.67149 125.955 9.63767C126.954 10.1787 127.985 10.5845 129.145 10.6183C129.564 10.7198 129.564 10.0435 129.145 10.0097Z" fill="white"/>
<path d="M124.214 16.2318C123.602 15.7922 122.925 15.4203 122.345 14.913C121.958 14.5748 121.153 13.6618 121.346 13.0531C121.475 12.6473 120.862 12.4782 120.734 12.884C120.508 13.5942 120.991 14.4058 121.443 14.913C122.119 15.7246 123.022 16.2318 123.892 16.8067C124.214 17.0434 124.537 16.4686 124.214 16.2318Z" fill="white"/>
<path d="M129.017 12.0724C128.727 11.3285 128.017 11.3623 127.341 11.4299C126.051 11.599 124.666 12.343 123.473 12.9517C123.086 13.1546 123.441 13.7294 123.795 13.5265C124.085 13.3913 124.343 13.256 124.633 13.1207C124.698 13.628 124.666 14.1352 124.666 14.6763C124.247 14.3381 123.795 14 123.376 13.6618C123.054 13.3913 122.603 13.8647 122.925 14.1352C123.505 14.6087 124.118 15.0145 124.633 15.5555C124.472 15.8261 124.762 16.2318 125.052 16.029C125.955 15.3864 127.018 15.0145 127.889 14.3381C128.469 13.8985 129.339 12.884 129.017 12.0724ZM125.278 12.8502C125.697 12.6811 126.148 12.512 126.567 12.343C126.664 12.3091 126.793 12.2753 126.922 12.2415C126.922 12.2753 126.889 12.2753 126.889 12.2753C126.406 13.1546 125.987 14.0338 125.503 14.8792C125.471 14.913 125.471 14.9468 125.471 14.9806C125.439 15.0145 125.375 15.0145 125.342 15.0483C125.278 14.3381 125.407 13.5942 125.278 12.8502ZM128.275 12.9178C127.921 13.6618 127.212 14.1352 126.438 14.541C126.76 13.8985 127.083 13.256 127.437 12.6473C127.566 12.4444 127.437 12.2415 127.244 12.1739C127.921 11.971 128.694 11.971 128.275 12.9178Z" fill="white"/>
<path d="M127.824 19.4107C127.889 19.3092 127.856 19.1739 127.792 19.0725C127.76 18.7005 127.663 18.3962 127.534 18.0918C127.244 17.5169 126.535 17.7875 126.084 17.9566C125.471 18.1933 125.02 18.5653 124.956 19.2416C124.923 19.6812 125.568 19.6812 125.6 19.2416C125.632 18.802 126.148 18.6329 126.47 18.5314C126.696 18.4638 126.922 18.2947 127.018 18.6329C127.083 18.7681 127.083 18.9372 127.083 19.1063C126.47 19.4783 125.826 19.8165 125.213 20.1208C124.827 20.3237 125.181 20.8986 125.536 20.6957C126.051 20.4252 126.567 20.1546 127.083 19.8503C127.051 20.4928 126.889 21.1353 126.503 21.6087V21.6425C126.18 21.8454 125.89 22.0822 125.6 22.3189C125.504 22.3527 125.439 22.3865 125.407 22.4541C125.439 22.3527 125.439 22.2174 125.342 22.116C124.44 20.9324 124.214 19.2416 124.311 17.7875C124.343 17.3479 123.699 17.3479 123.666 17.7875C123.57 19.4445 123.86 21.3044 124.891 22.6232C125.02 22.7923 125.213 22.7585 125.342 22.6232C125.342 22.657 125.31 22.657 125.31 22.6909C125.246 23.029 125.6 23.2657 125.858 23.029C126.309 22.5556 126.857 22.2174 127.405 21.9131C127.663 21.7778 127.598 21.5073 127.405 21.372C127.695 20.7633 127.824 20.087 127.824 19.4107Z" fill="white"/>
<path d="M109.002 17.5169C108.744 16.7729 108.422 16.0628 108.389 15.2512C108.389 14.8116 107.745 14.8116 107.745 15.2512C107.745 15.3526 107.745 15.4203 107.777 15.4879C107.745 15.4879 107.745 15.5217 107.745 15.5217C107.1 16.0628 106.713 16.8744 106.101 17.4831C105.65 17.9565 104.167 19.4106 104.908 17.6522C105.36 16.5362 105.843 15.4541 106.359 14.372C106.488 14.1353 106.584 13.8985 106.681 13.628C106.746 13.628 106.778 13.628 106.842 13.628C107.197 13.628 107.261 13.0869 106.971 12.9855C107.165 12.5797 107.39 12.2415 107.68 11.971C108.003 11.7005 107.551 11.227 107.229 11.4976C106.778 11.8696 106.456 12.4106 106.165 13.0531C105.521 13.1546 104.78 13.256 104.232 13.0193C104.618 11.9372 105.585 11.227 106.101 10.2125C106.294 9.84057 105.746 9.5024 105.553 9.87438C104.973 11.0241 103.845 11.8019 103.523 13.0869C103.49 13.256 103.555 13.3913 103.684 13.4589C104.296 13.8985 105.102 13.8309 105.843 13.7295C105.618 14.2705 105.392 14.8454 105.199 15.285C104.844 16.0628 104.554 16.8744 104.199 17.686C104.071 18.0241 103.909 18.599 104.071 18.9372C104.844 20.4251 107.068 17.314 107.906 16.2995C108.035 16.7729 108.228 17.2125 108.357 17.686C108.518 18.1256 109.131 17.9227 109.002 17.5169Z" fill="white"/>
<path d="M105.102 19.7825C104.941 19.3768 104.361 19.7149 104.554 20.1207C104.747 20.5941 104.651 21.169 104.651 21.6425C104.651 22.0821 105.295 22.0821 105.295 21.6425C105.295 21.0338 105.36 20.4251 105.102 19.7825Z" fill="white"/>
<path d="M106.52 19.0387C106.52 18.5991 105.875 18.5991 105.875 19.0387C105.875 19.6812 106.004 20.3575 106.004 21C106.004 21.4397 106.649 21.4397 106.649 21C106.649 20.3575 106.52 19.715 106.52 19.0387Z" fill="white"/>
<path d="M108.486 20.0532C108.067 19.8165 107.777 19.4107 107.777 18.9034C107.777 18.4638 107.132 18.4638 107.132 18.9034C107.165 19.6474 107.551 20.2899 108.164 20.6281C108.518 20.8648 108.841 20.2561 108.486 20.0532Z" fill="white"/>
<path d="M118.381 13.1208C118.123 13.3237 117.285 13.6956 116.35 14.2029C116.608 12.7488 116.802 11.0918 116.028 10.8551C115.319 10.6522 114.352 11.7681 113.869 12.1401C113.224 12.6473 111.29 14.3382 110.742 12.6473C110.613 12.2754 109.904 10.5169 110.388 10.2802C110.775 10.0773 110.42 9.50241 110.065 9.70531C108.97 10.2464 109.937 12.8841 110.549 13.5266C112.031 15.0821 114.191 12.6812 115.383 11.8357C116.254 11.1932 115.706 14.1014 115.641 14.5411C115.641 14.5749 115.641 14.5749 115.641 14.6087C113.482 15.7584 111.097 17.2802 112.257 18.3961C112.741 18.8357 114.352 20.8985 115.158 20.4251C115.448 20.256 115.673 20.087 115.706 19.715C115.738 18.5652 115.802 17.4493 115.996 16.3333C116.028 16.1304 116.125 15.7246 116.221 15.2512C117.092 14.8116 117.994 14.372 118.8 13.7633C119.058 13.4589 118.735 12.8841 118.381 13.1208ZM114.997 18.4976C114.964 18.8019 114.964 19.0725 114.997 19.3768C115.029 20.3575 113.836 18.9034 113.836 18.9034C113.031 18.599 112.741 17.9903 112.934 17.1111C113.321 16.8068 113.772 16.5362 114.159 16.2657C114.545 15.9952 114.964 15.7923 115.383 15.5556C115.254 16.5362 115.061 17.4831 114.997 18.4976Z" fill="white"/>
</g>
<defs>
<clipPath id="clip0">
<rect width="148" height="28" fill="white"/>
</clipPath>
</defs>
</svg>
