<svg width="114" height="114" viewBox="0 0 114 114" fill="none" xmlns="http://www.w3.org/2000/svg">
<g clip-path="url(#clip0)">
<path d="M66.0188 110.527V104.916C68.9619 104.448 71.2138 101.887 71.2138 98.8148C71.2138 96.6773 70.1213 94.7848 68.4491 93.6715C70.1436 92.0461 71.2138 89.775 71.2138 87.259C71.2138 82.9617 68.1369 79.3769 64.079 78.5754V70.3594C64.079 65.9508 60.4893 62.3883 56.097 62.3883H15.1614C10.7467 62.3883 7.17935 65.973 7.17935 70.3594V78.5754C3.12146 79.3769 0.0445922 82.9617 0.0445922 87.259C0.0445922 89.775 1.11481 92.0684 2.80931 93.6715C1.1371 94.7848 0.0445922 96.6773 0.0445922 98.8148C0.0445922 101.932 2.36339 104.515 5.35107 104.938V110.527H0V114H113.933V110.527H66.0188ZM62.3622 81.8484C65.3276 81.8484 67.7356 84.2531 67.7356 87.2144C67.7356 90.1758 65.3276 92.5805 62.3622 92.5805C59.3968 92.5805 56.9889 90.1758 56.9889 87.2144C56.9889 84.2531 59.3968 81.8484 62.3622 81.8484ZM10.6575 70.3371C10.6575 67.8656 12.6865 65.8394 15.1614 65.8394H56.1193C58.5942 65.8394 60.6231 67.8656 60.6231 70.3371V78.5531C56.5652 79.3547 53.4884 82.9394 53.4884 87.2367C53.4884 89.2629 54.1795 91.1109 55.3166 92.6027H15.964C17.1011 91.1109 17.7923 89.2406 17.7923 87.2367C17.7923 82.9394 14.7154 79.3547 10.6575 78.5531V70.3371ZM8.91844 81.8484C11.8838 81.8484 14.2918 84.2531 14.2918 87.2144C14.2918 90.1758 11.8838 92.5805 8.91844 92.5805C5.95306 92.5805 3.54508 90.1758 3.54508 87.2144C3.54508 84.2531 5.93076 81.8484 8.91844 81.8484ZM62.5406 110.527H8.82926V104.982H62.5406V110.527ZM6.24291 101.509C4.74907 101.509 3.52279 100.284 3.52279 98.7926C3.52279 97.3008 4.74907 96.0762 6.24291 96.0762H65.0378C66.5316 96.0762 67.7579 97.3008 67.7579 98.7926C67.7579 100.284 66.5316 101.509 65.0378 101.509H6.24291Z" fill="#E0E9FF"/>
<path d="M23.0097 74.768H19.5315V78.2414H23.0097V74.768Z" fill="#E0E9FF"/>
<path d="M51.6154 74.768H48.1372V78.2414H51.6154V74.768Z" fill="#E0E9FF"/>
<path d="M10.6799 85.4332H7.20166V88.9066H10.6799V85.4332Z" fill="#E0E9FF"/>
<path d="M64.1683 85.4332H60.4448V88.9066H64.1683V85.4332Z" fill="#E0E9FF"/>
<path d="M112.306 49.8527V36.9164H92.7742V49.8527H79.9762V36.6938H60.6901V49.8527H53.5107V58.6699H114.022V49.8527H112.306ZM106.955 40.3898H108.805V49.452H106.955V40.3898ZM101.603 40.3898H103.454V49.452H101.603V40.3898ZM96.2524 40.3898H98.1029V49.452H96.2524V40.3898ZM74.8704 40.1672H76.498V49.2293H74.8704V40.1672ZM69.5193 40.1672H71.3699V49.2293H69.5193V40.1672ZM64.1683 40.1672H66.0189V49.2293H64.1683V40.1672ZM110.522 55.1965H56.9889V53.3484H110.522V55.1965Z" fill="#E0E9FF"/>
<path d="M103.454 80.0672V74.768H90.6561V67.5762H71.3477V83.6297L90.6338 83.5852H90.6561L110.5 83.5406V85.3887H73.0422V88.8621H113.978V80.0449L103.454 80.0672ZM76.4981 80.1117H74.8704V71.0496H76.4981V80.1117ZM82.0721 80.1117H79.9763V71.0496H82.0721V80.1117ZM87.1779 80.1117H85.5503V71.0496H87.1779V80.1117ZM99.9759 80.0895L90.6784 80.1117V78.2637H99.9759V80.0895Z" fill="#E0E9FF"/>
<path d="M83.6995 12.5356H79.9761V16.009H83.6995V12.5356Z" fill="#E0E9FF"/>
<path d="M106.954 19.6606V14.4059H94.4016V7.1918H69.5192V19.6383H53.4883V28.4555H114V19.6606H106.954ZM94.4016 17.8793H103.454V19.6606H94.4016V17.8793ZM73.0197 16.0313H78.3484V12.5356H73.0197V10.6875H90.9234V12.5578H85.5724V16.0313H90.9234V19.6606H73.0197V16.0313ZM110.522 24.982H56.9888V23.134H110.522V24.982Z" fill="#E0E9FF"/>
<path d="M46.2645 37.384H17.9038V40.8574H46.2645V37.384Z" fill="#E0E9FF"/>
<path d="M33.7118 0H30.2336V7.1918H33.7118V0Z" fill="#E0E9FF"/>
<path d="M33.7118 10.8656V8.81717H30.2336V10.8879C24.1914 11.7785 19.5315 16.9441 19.5315 23.1785V35.7586H23.0097V33.9105H26.7331V30.4371H23.0097V23.2008C23.0097 18.2801 27.0676 14.2722 32.0842 14.2722C37.1008 14.2722 41.1587 18.2801 41.1587 23.2008V30.4371H37.4353V33.9105H41.1587V35.7586H44.6369V23.1785C44.6369 16.8773 39.8655 11.6449 33.7118 10.8656Z" fill="#E0E9FF"/>
<path d="M35.8076 30.4149H28.606V33.8883H35.8076V30.4149Z" fill="#E0E9FF"/>
<path d="M33.9571 42.7277H30.2336V46.2012H33.9571V42.7277Z" fill="#E0E9FF"/>
</g>
<defs>
<clipPath id="clip0">
<rect width="114" height="114" fill="white"/>
</clipPath>
</defs>
</svg>
