<svg width="70" height="70" viewBox="0 0 70 70" fill="none" xmlns="http://www.w3.org/2000/svg">
<path d="M2.74512 6.53283C2.74512 4.64722 2.74512 3.70441 3.3309 3.11862C3.91669 2.53284 4.8595 2.53284 6.74512 2.53284H63.2549C65.1405 2.53284 66.0833 2.53284 66.6691 3.11862C67.2549 3.70441 67.2549 4.64722 67.2549 6.53284V61.4671C67.2549 64.2955 67.2549 65.7097 66.3762 66.5884C65.4976 67.467 64.0833 67.467 61.2549 67.467H8.74512C5.91669 67.467 4.50248 67.467 3.6238 66.5884C2.74512 65.7097 2.74512 64.2955 2.74512 61.467V6.53283Z" stroke="#E0E9FF" stroke-width="5"/>
<path d="M47.0957 56.6448L47.0957 67.4671M22.9045 56.6448L22.9045 67.4671" stroke="#E0E9FF" stroke-width="5" stroke-linecap="round"/>
<path d="M22.9043 20.5702L47.0955 20.5702" stroke="#E0E9FF" stroke-width="5" stroke-linecap="round"/>
<path d="M22.9043 35L47.0955 35" stroke="#E0E9FF" stroke-width="5" stroke-linecap="round"/>
</svg>
