<svg width="20" height="20" viewBox="0 0 20 20" fill="none" xmlns="http://www.w3.org/2000/svg">
<path d="M16.6666 10V18.3333H3.33325V10" stroke="white" stroke-width="2" stroke-linecap="round" stroke-linejoin="round"/>
<path d="M18.3334 5.83333H1.66675V10H18.3334V5.83333Z" stroke="white" stroke-width="2" stroke-linecap="round" stroke-linejoin="round"/>
<path d="M10 18.3333V5.83333" stroke="white" stroke-width="2" stroke-linecap="round" stroke-linejoin="round"/>
<path d="M10.0001 5.83333H6.25008C5.69755 5.83333 5.16764 5.61384 4.77694 5.22314C4.38624 4.83244 4.16675 4.30253 4.16675 3.75C4.16675 3.19747 4.38624 2.66756 4.77694 2.27686C5.16764 1.88616 5.69755 1.66667 6.25008 1.66667C9.16675 1.66667 10.0001 5.83333 10.0001 5.83333Z" stroke="white" stroke-width="2" stroke-linecap="round" stroke-linejoin="round"/>
<path d="M10 5.83333H13.75C14.3025 5.83333 14.8324 5.61384 15.2231 5.22314C15.6138 4.83244 15.8333 4.30253 15.8333 3.75C15.8333 3.19747 15.6138 2.66756 15.2231 2.27686C14.8324 1.88616 14.3025 1.66667 13.75 1.66667C10.8333 1.66667 10 5.83333 10 5.83333Z" stroke="white" stroke-width="2" stroke-linecap="round" stroke-linejoin="round"/>
</svg>
