<svg width="65" height="70" viewBox="0 0 65 70" fill="none" xmlns="http://www.w3.org/2000/svg">
<path d="M64.4457 18.7874L47.2355 0.616858C46.866 0.227969 46.3513 0 45.8233 0H20.1665C16.933 0 14.2934 2.66858 14.2934 5.95402V23.7624H4.5533C2.04569 23.7624 0 25.841 0 28.3889V48.1954C0 50.7433 2.04569 52.8218 4.5533 52.8218H14.2934V64.0326C14.2934 67.318 16.9198 69.9866 20.1665 69.9866H59.1269C62.3604 69.9866 65 67.318 65 64.0326V20.1686C65 19.6456 64.802 19.1628 64.4457 18.7874ZM46.8 18.4789V5.90038L58.7178 18.4923H46.8V18.4789ZM18.2132 52.8352H39.6467C42.1543 52.8352 44.2 50.7567 44.2 48.2088V28.3889C44.2 25.841 42.1543 23.7624 39.6467 23.7624H18.2132V5.95402C18.2132 4.86782 19.0843 3.96935 20.1665 3.96935H42.8934V20.4636C42.8934 21.5632 43.7777 22.4483 44.8467 22.4483H61.0802V64.0326C61.0802 65.1188 60.2091 66.0038 59.1269 66.0038H20.1665C19.0975 66.0038 18.2132 65.1188 18.2132 64.0326V52.8352ZM40.2802 28.3889V48.1954C40.2802 48.5575 39.9898 48.8391 39.6467 48.8391H4.5533C4.19695 48.8391 3.9198 48.5441 3.9198 48.1954V28.3889C3.9198 28.0268 4.21015 27.7452 4.5533 27.7452H39.6467C40.003 27.7452 40.2802 28.0402 40.2802 28.3889Z" fill="#E0E9FF"/>
<path d="M27.6364 34.7318C27.5044 34.3831 27.3329 34.0613 27.1217 33.7663C26.607 33.0824 25.9471 32.6264 25.1684 32.4119C24.8649 32.3314 24.2446 32.2241 22.3176 32.2241H18.0415V44.9099H21.6182V40.6322H22.4232C23.4923 40.6322 24.2973 40.5785 24.9044 40.4578C25.3796 40.3506 25.8547 40.136 26.3034 39.8142C26.7654 39.4789 27.1613 39.023 27.4517 38.4598C27.7552 37.8831 27.9004 37.1858 27.9004 36.3946C27.9004 36.0728 27.874 35.7778 27.8212 35.4962H30.9359V44.9234H34.5126V35.4962H37.8121V32.2375H27.6232V34.7318H27.6364ZM24.2577 36.4214C24.2577 36.6226 24.2182 36.7835 24.1126 36.931C24.0202 37.0651 23.8882 37.1724 23.7166 37.2394C23.611 37.2797 23.2679 37.3735 22.1725 37.3735H21.605V35.4962H22.0405C23.0435 35.4962 23.4131 35.5364 23.5451 35.5632C23.7694 35.6034 23.941 35.6973 24.073 35.8582C24.1522 35.9387 24.2577 36.0996 24.2577 36.4214Z" fill="#E0E9FF"/>
<path d="M16.7218 33.7663C16.2071 33.0824 15.5472 32.6264 14.7685 32.4119C14.465 32.3314 13.8447 32.2241 11.9178 32.2241H7.62842V44.9099H11.2051V40.6322H12.0101C13.0792 40.6322 13.8843 40.5785 14.4914 40.4578C14.9665 40.3506 15.4416 40.136 15.8903 39.8142C16.3523 39.4789 16.7482 39.023 17.0386 38.4598C17.3421 37.8831 17.4873 37.1992 17.4873 36.3946C17.5005 35.3352 17.2365 34.4636 16.7218 33.7663ZM13.8579 36.4214C13.8579 36.6226 13.8183 36.7835 13.7127 36.931C13.6203 37.0785 13.4883 37.1724 13.3167 37.2394C13.2112 37.2797 12.868 37.3735 11.7726 37.3735H11.2051V35.4962H11.6274C12.6304 35.4962 13 35.5364 13.132 35.5632C13.3563 35.6034 13.5279 35.6973 13.6599 35.8582C13.7523 35.9387 13.8579 36.0996 13.8579 36.4214Z" fill="#E0E9FF"/>
</svg>
