<svg width="126" height="126" viewBox="0 0 126 126" fill="none" xmlns="http://www.w3.org/2000/svg">
<g clip-path="url(#clip0)">
<path d="M71.4001 54.06C69.3788 54.06 67.7251 52.4059 67.7251 50.3842C67.7251 48.3626 69.3788 46.7085 71.4001 46.7085C73.4213 46.7085 75.0751 48.3626 75.0751 50.3842C75.0751 52.4059 73.4213 54.06 71.4001 54.06ZM71.4001 49.8591C71.1113 49.8591 70.8751 50.0954 70.8751 50.3842C70.8751 50.9619 71.9251 50.9619 71.9251 50.3842C71.9251 50.0954 71.6888 49.8591 71.4001 49.8591Z" fill="#E0E9FF"/>
<path d="M92.4001 54.06C90.3788 54.06 88.7251 52.4059 88.7251 50.3842C88.7251 48.3626 90.3788 46.7085 92.4001 46.7085C94.4213 46.7085 96.0751 48.3626 96.0751 50.3842C96.0751 52.4059 94.4213 54.06 92.4001 54.06ZM92.4001 49.8591C92.1113 49.8591 91.8751 50.0954 91.8751 50.3842C91.8751 50.9619 92.9251 50.9619 92.9251 50.3842C92.9251 50.0954 92.6888 49.8591 92.4001 49.8591Z" fill="#E0E9FF"/>
<path d="M81.8999 68.7631C77.5687 68.7631 74.0249 65.2186 74.0249 60.8864H77.1749C77.1749 63.4857 79.3012 65.6124 81.8999 65.6124C84.4987 65.6124 86.6249 63.4857 86.6249 60.8864H89.7749C89.7749 65.2449 86.2312 68.7631 81.8999 68.7631Z" fill="#E0E9FF"/>
<path d="M90.3 109.197H105V113.397H90.3V109.197Z" fill="#E0E9FF"/>
<path d="M126 69.2874C126 64.6664 122.22 60.8857 117.6 60.8857V36.6256C117.6 16.9865 102.664 0.918156 83.6325 -0.000785689C83.0287 -0.0270412 80.7975 -0.0270412 80.1937 -0.000785689C61.1362 0.918156 46.2 17.0128 46.2 36.6256V60.8857C41.58 60.8857 37.8 64.6664 37.8 69.2874C37.8 72.7531 39.9262 75.7463 42.945 77.0328C39.795 79.7371 37.8 83.7279 37.8 88.1914C37.8 90.6594 38.43 93.0749 39.585 95.2278C39.7687 96.068 40.2937 98.1422 41.5537 100.584L39.5325 110.062L31.605 94.1776L33.1012 86.7473C33.5737 84.4368 32.4187 82.0738 30.2925 80.9974C28.2712 79.9734 25.83 80.3935 24.2287 81.9951L22.6275 83.5966L8.47875 77.978C6.5625 77.2166 4.41 77.4529 2.70375 78.6081C0.9975 79.7633 0 81.68 0 83.7279C0 85.9334 1.18125 88.0076 3.12375 89.084L15.015 95.8842L23.1787 124.476C23.4412 125.369 24.255 125.999 25.2 125.999H44.1H123.9C124.53 125.999 125.134 125.71 125.527 125.238C125.921 124.765 126.079 124.109 125.947 123.479L121.38 101.319C122.535 99.4812 123.454 97.5383 124.084 95.5166L124.215 95.1228C124.372 94.5714 124.582 94.0201 124.792 93.4687C125.344 91.9459 126 90.213 126 88.2176C126 83.7542 124.005 79.7633 120.855 77.059C123.874 75.7725 126 72.7794 126 69.2874ZM26.775 121.798L18.8212 93.915C18.6637 93.3899 18.3225 92.9436 17.85 92.6548L5.1975 85.4345C4.59375 85.067 4.2 84.4106 4.2 83.7017C4.2 83.0453 4.515 82.4414 5.06625 82.0476C5.6175 81.6537 6.3 81.6012 6.90375 81.8375L22.3125 88.0601C23.1 88.3751 23.9925 88.1914 24.57 87.5875L27.1687 84.9882C27.4837 84.6731 27.9825 84.5944 28.4025 84.7781C28.8225 84.9882 29.0587 85.4608 28.98 85.9334L27.3525 94.0726C27.2475 94.5189 27.3262 95.0178 27.5362 95.4379L40.7137 121.798H26.775ZM42.5512 116.101L46.9087 95.6217C46.935 95.5429 46.935 95.4904 46.935 95.4116C47.0137 94.5714 47.6175 93.8625 48.3 93.6525L61.5037 90.5806L64.7062 101.424C64.9687 102.343 65.8087 102.921 66.7275 102.921C66.9112 102.921 67.095 102.894 67.2787 102.842L79.8 99.3762V121.825H56.7V113.423H52.5V121.825H45.3862L42.5512 116.101ZM69.405 88.7165C69.51 89.1365 69.72 89.5566 70.0875 89.8455L77.385 95.6742L68.145 98.2209L65.5987 89.6091L69.405 88.7165ZM60.9 41.9817H75.81C81.6112 41.9817 86.625 38.0434 88.0162 32.5035L90.3 24.4956L92.9775 34.0263C94.1325 38.621 98.2012 41.8504 102.9 41.9555V52.4839C102.9 64.0626 93.4762 73.4883 81.9 73.4883C70.3237 73.4883 60.9 64.0626 60.9 52.4839V41.9817ZM93.7125 89.8455C94.0537 89.5566 94.2637 89.1628 94.3687 88.7427L98.0175 89.6354L94.815 98.2472L86.3362 95.7529L93.7125 89.8455ZM81.9 77.6892C84.84 77.6892 87.675 77.1641 90.3 76.2189V87.1936L81.9 93.915L73.5 87.1936V76.2189C76.125 77.1641 78.96 77.6892 81.9 77.6892ZM111.3 121.798V113.397H107.1V121.798H84V99.4024L95.5237 102.816C96.5737 103.131 97.7025 102.579 98.0962 101.529L102.139 90.6331L114.424 93.6262C115.237 93.8625 115.815 94.5714 115.946 95.6217L121.327 121.825L111.3 121.798ZM117.6 73.4883H111.3C110.145 73.4883 109.2 74.4335 109.2 75.5887C109.2 76.744 110.145 77.6892 111.3 77.6892C117.101 77.6892 121.8 82.3889 121.8 88.1914C121.8 89.4516 121.354 90.6856 120.855 91.9984C120.619 92.6285 120.382 93.2587 120.199 93.8888L120.094 94.2301C120.067 94.3089 120.015 94.3876 119.989 94.4927C119.569 92.1822 117.889 90.2655 115.5 89.5566L94.5 84.4368V74.276C102.007 69.9175 107.1 61.7783 107.1 52.4839V41.9817H109.2V37.7808H103.162C100.275 37.7808 97.755 35.8117 97.0462 32.9498L92.3475 16.1988C92.085 15.3062 91.2712 14.676 90.3262 14.676C89.3812 14.676 88.5675 15.3062 88.305 16.1988L83.9737 31.427C83.0287 35.1815 79.695 37.7808 75.8362 37.7808H54.6V41.9817H56.7V52.4839C56.7 61.7783 61.7925 69.9175 69.3 74.276V84.4106L47.2237 89.5566C45.4125 90.108 43.9687 91.4208 43.26 93.1011C42.4462 91.5783 42.0262 89.898 42.0262 88.1651C42.0262 82.3626 46.725 77.6629 52.5262 77.6629C53.6812 77.6629 54.6262 76.7177 54.6262 75.5625C54.6262 74.4072 53.6812 73.462 52.5262 73.462H46.2262C43.9162 73.462 42.0262 71.5716 42.0262 69.2612C42.0262 66.9507 43.9162 65.0603 46.2262 65.0603H48.3262C49.4812 65.0603 50.4262 64.1151 50.4262 62.9598V36.6256C50.4262 19.2445 63.6037 4.98775 80.4037 4.20009C80.8762 4.17383 82.9762 4.17383 83.4487 4.20009C100.249 4.98775 113.426 19.2445 113.426 36.6256V62.9861C113.426 64.1413 114.371 65.0865 115.526 65.0865H117.626C119.936 65.0865 121.826 66.9769 121.826 69.2874C121.8 71.6241 119.91 73.4883 117.6 73.4883Z" fill="#E0E9FF"/>
<path d="M31.5 41.9825H35.7V48.2838H31.5V41.9825Z" fill="#E0E9FF"/>
<path d="M25.2 37.7816H31.5V41.9825H25.2V37.7816Z" fill="#E0E9FF"/>
<path d="M31.5 31.4803H35.7V37.7816H31.5V31.4803Z" fill="#E0E9FF"/>
<path d="M35.7 37.7816H42V41.9825H35.7V37.7816Z" fill="#E0E9FF"/>
<path d="M6.30005 20.9781H10.5V27.2794H6.30005V20.9781Z" fill="#E0E9FF"/>
<path d="M0 16.7773H6.3V20.9781H0V16.7773Z" fill="#E0E9FF"/>
<path d="M6.30005 10.476H10.5V16.7773H6.30005V10.476Z" fill="#E0E9FF"/>
<path d="M10.5 16.7773H16.8V20.9781H10.5V16.7773Z" fill="#E0E9FF"/>
<path d="M27.3 16.7773H31.5V20.9781H27.3V16.7773Z" fill="#E0E9FF"/>
<path d="M4.19995 39.882H8.39995V44.0829H4.19995V39.882Z" fill="#E0E9FF"/>
<path d="M16.8 54.5851H21V58.786H16.8V54.5851Z" fill="#E0E9FF"/>
</g>
<defs>
<clipPath id="clip0">
<rect width="126" height="126" fill="white"/>
</clipPath>
</defs>
</svg>
