<svg width="55" height="73" viewBox="0 0 55 73" fill="none" xmlns="http://www.w3.org/2000/svg">
<path d="M39.4432 9.79321C44.3805 9.79321 46.8491 9.79321 48.6225 10.9802C49.3902 11.4941 50.0493 12.1544 50.5623 12.9234C51.7472 14.6999 51.7472 17.1729 51.7472 22.1188V55.5741C51.7472 62.2145 51.7472 65.5347 49.6879 67.5976C47.6286 69.6605 44.3143 69.6605 37.6855 69.6605H16.593C9.9642 69.6605 6.64983 69.6605 4.59054 67.5976C2.53125 65.5347 2.53125 62.2145 2.53125 55.5741V22.1188C2.53125 17.1729 2.53125 14.6999 3.71616 12.9234C4.22912 12.1544 4.88827 11.4941 5.65597 10.9802C7.42932 9.79321 9.89796 9.79321 14.8352 9.79321" stroke="#E0E9FF" stroke-width="5"/>
<path d="M16.593 9.79321C16.593 5.90335 19.7408 2.75 23.6239 2.75H30.6547C34.5378 2.75 37.6856 5.90335 37.6856 9.79321C37.6856 13.6831 34.5378 16.8364 30.6547 16.8364H23.6239C19.7408 16.8364 16.593 13.6831 16.593 9.79321Z" stroke="#E0E9FF" stroke-width="5"/>
<path d="M16.593 34.4446L37.6856 34.4446" stroke="#E0E9FF" stroke-width="5" stroke-linecap="round"/>
<path d="M16.593 48.5308L30.6547 48.5308" stroke="#E0E9FF" stroke-width="5" stroke-linecap="round"/>
</svg>
