<svg width="71" height="72" viewBox="0 0 71 72" fill="none" xmlns="http://www.w3.org/2000/svg">
<path d="M57.0507 3.16485L61.8297 3.16485C64.6581 3.16485 66.0723 3.16485 66.951 4.04353C67.8297 4.92221 67.8297 6.33642 67.8297 9.16485L67.8297 23.8143C67.8297 24.2857 67.8297 24.5214 67.6832 24.6679C67.5368 24.8143 67.3011 24.8143 66.8297 24.8143L46.2717 24.8143M57.0507 3.16485L52.2717 3.16485C49.4433 3.16485 48.0291 3.16485 47.1504 4.04353C46.2717 4.92221 46.2717 6.33642 46.2717 9.16485L46.2717 24.8143M57.0507 3.16485L7.15576 3.16485C5.27014 3.16485 4.32733 3.16485 3.74155 3.75064C3.15576 4.33642 3.15576 5.27923 3.15576 7.16485L3.15576 68.1133L13.9347 64.505L24.7137 68.1133L35.4927 64.505L46.2717 68.1133L46.2717 24.8143" stroke="#E0E9FF" stroke-width="5"/>
<path d="M17.5278 17.5979L31.8998 17.5979" stroke="#E0E9FF" stroke-width="5" stroke-linecap="round"/>
<path d="M21.1208 32.031H17.5279" stroke="#E0E9FF" stroke-width="5" stroke-linecap="round"/>
<path d="M17.5278 46.4639L28.3068 46.4639" stroke="#E0E9FF" stroke-width="5" stroke-linecap="round"/>
</svg>
