<svg width="114" height="40" viewBox="0 0 114 40" fill="none" xmlns="http://www.w3.org/2000/svg">
<g clip-path="url(#clip0)">
<path d="M6.86956 34.9334C6.86956 35.4667 6.78261 35.9112 6.6087 36.3556C6.43478 36.8001 6.26087 37.1556 5.91304 37.5112C5.56522 37.8667 5.21739 38.1334 4.78261 38.3112C4.34783 38.4889 3.82609 38.5778 3.21739 38.5778C2.95652 38.5778 2.6087 38.5778 2.34783 38.4889C2.08696 38.4889 1.82609 38.4 1.56522 38.3112C1.30435 38.2223 1.04348 38.1334 0.869565 38.0445C0.608696 37.9556 0.434783 37.8667 0.26087 37.6889V35.7334C0.434783 35.9112 0.695652 36.0001 0.869565 36.1778C1.13043 36.3556 1.3913 36.4445 1.65217 36.5334C1.91304 36.6223 2.17391 36.7112 2.43478 36.8001C2.69565 36.8889 2.95652 36.8889 3.13043 36.8889C3.47826 36.8889 3.73913 36.8 4 36.7112C4.26087 36.6223 4.43478 36.4445 4.6087 36.2667C4.78261 36.0889 4.86956 35.9112 4.95652 35.6445C5.04348 35.3778 5.04348 35.1112 5.04348 34.8445C5.04348 34.4889 4.95652 34.2223 4.86956 34.0445C4.78261 33.7778 4.6087 33.6001 4.43478 33.4223C4.26087 33.2445 4 33.0667 3.73913 32.9778C3.47826 32.8001 3.13043 32.7112 2.78261 32.5334C2.34783 32.3556 1.91304 32.0889 1.56522 31.9112C1.21739 31.7334 0.869565 31.4667 0.608696 31.2001C0.347826 30.9334 0.173913 30.6667 0.0869565 30.3112C0.0869565 30.1334 0 29.6889 0 29.2445C0 28.7112 0.0869565 28.2667 0.26087 27.8223C0.434783 27.3778 0.695652 27.0223 1.04348 26.7556C1.3913 26.4889 1.73913 26.2223 2.17391 26.0445C2.6087 25.8667 3.13043 25.7778 3.65217 25.7778C4.17391 25.7778 4.69565 25.8667 5.13043 25.9556C5.56522 26.0445 5.91304 26.2223 6.34783 26.4001V28.1778C6.17391 28.0889 6 28.0001 5.73913 27.9112C5.47826 27.8223 5.30435 27.7334 5.04348 27.6445C4.78261 27.5556 4.52174 27.5556 4.34783 27.4667C4.08696 27.4667 3.91304 27.3778 3.65217 27.3778C3.30435 27.3778 3.04348 27.3778 2.86956 27.4667C2.6087 27.5556 2.43478 27.6445 2.26087 27.8223C2.08696 28.0001 2 28.1778 1.91304 28.3556C1.82609 28.5334 1.82609 28.8001 1.82609 29.0667C1.82609 29.3334 1.91304 29.6001 2 29.7778C2.08696 29.9556 2.26087 30.1334 2.43478 30.3112C2.6087 30.4889 2.86956 30.6667 3.13043 30.7556C3.3913 30.9334 3.73913 31.0223 4.08696 31.2001C4.52174 31.3778 4.95652 31.6445 5.30435 31.8223C5.65217 32.0001 5.91304 32.2667 6.17391 32.5334C6.43478 32.8001 6.6087 33.1556 6.69565 33.5112C6.78261 34.0445 6.86956 34.4001 6.86956 34.9334Z" fill="white"/>
<path d="M24.6087 38.4H22.9565L17.4783 30.3111C17.4783 30.2223 17.3913 30.1334 17.3044 29.9556C17.2174 29.7778 17.1305 29.6 17.0435 29.4223C16.9565 29.2445 16.8696 29.0667 16.6957 28.8889C16.6087 28.7111 16.5218 28.5334 16.5218 28.4445V38.3111H14.9565V25.8667H16.6957L21.9131 33.6889C22 33.8667 22.087 33.9556 22.1739 34.1334C22.2609 34.3111 22.4348 34.4889 22.5218 34.6667C22.6087 34.8445 22.6957 35.0222 22.8696 35.2C22.9565 35.3778 23.0435 35.5556 23.1305 35.6445V25.9556H24.6957V38.4H24.6087Z" fill="white"/>
<path d="M29.913 32.2667C29.913 32.9778 30 33.6 30.1739 34.2223C30.3478 34.8445 30.6087 35.2889 30.9565 35.7334C31.3043 36.1778 31.7391 36.4445 32.1739 36.7112C32.6956 36.9778 33.2173 37.0667 33.913 37.0667C34.2608 37.0667 34.6956 36.9778 35.0434 36.8889C35.4782 36.8 35.7391 36.7112 36.0869 36.5334V33.7778H33.5652V32.1778H37.7391V37.5112C37.1304 37.8667 36.5217 38.1334 35.826 38.3112C35.1304 38.4889 34.4347 38.5778 33.6521 38.5778C32.7826 38.5778 32 38.4 31.3043 38.1334C30.6087 37.7778 30 37.4223 29.5652 36.8C29.1304 36.2667 28.6956 35.5556 28.4347 34.8445C28.1739 34.0445 28.0869 33.2445 28.0869 32.3556C28.0869 31.2889 28.2608 30.4001 28.5217 29.6001C28.7826 28.8001 29.2174 28.0889 29.7391 27.5556C30.2608 27.0223 30.8695 26.5778 31.6521 26.2223C32.3478 25.9556 33.1304 25.7778 34 25.7778C34.6956 25.7778 35.3913 25.8667 36 26.0445C36.6087 26.2223 37.2173 26.4889 37.7391 26.8445V28.8001C37.4782 28.6223 37.2173 28.3556 36.8695 28.1778C36.6087 28.0001 36.2608 27.8223 35.913 27.7334C35.5652 27.6445 35.3043 27.4667 34.9565 27.4667C34.6087 27.3778 34.3478 27.3778 34 27.3778C33.3913 27.3778 32.7826 27.4667 32.2608 27.7334C31.7391 28.0001 31.3043 28.2667 30.9565 28.7112C30.6087 29.1556 30.3478 29.6889 30.1739 30.2223C30 30.8445 29.913 31.5556 29.913 32.2667Z" fill="white"/>
<path d="M47.0434 38.4H41.739V25.9556H43.3912V36.8H47.0434V38.4Z" fill="white"/>
<path d="M55.8262 38.4H50.261V25.9556H55.8262V27.5556H51.9132V31.3778H55.8262V32.9778H51.9132V36.8H55.8262V38.4Z" fill="white"/>
<path d="M71.3043 29.3334C71.3043 29.9556 71.2174 30.4889 70.9565 30.9334C70.7826 31.4667 70.4348 31.8223 70 32.1778C69.5652 32.5334 69.0435 32.8 68.4348 32.9778C67.8261 33.1556 67.0435 33.2445 66.2609 33.2445V38.3111H64.5217V25.8667H66.7826C67.4783 25.8667 68 25.9556 68.6087 26.0445C69.1304 26.1334 69.6522 26.3111 70 26.5778C70.4348 26.8445 70.6956 27.2 70.9565 27.6445C71.2174 28.1778 71.3043 28.7111 71.3043 29.3334ZM69.5652 29.4223C69.5652 29.0667 69.4783 28.8 69.3913 28.5334C69.3043 28.2667 69.1304 28.0889 68.8696 27.9111C68.6956 27.7334 68.3478 27.6445 68 27.5556C67.6522 27.4667 67.2174 27.4667 66.7826 27.4667H66.1739V31.6445H66.6956C67.5652 31.6445 68.2609 31.4667 68.6956 31.0223C69.3043 30.7556 69.5652 30.2223 69.5652 29.4223Z" fill="white"/>
<path d="M83.4783 38.4H81.7392L80.5218 34.8445H76.261L75.1305 38.4H73.3044L77.6523 25.9556H79.1305L83.4783 38.4ZM78.5218 28.9778C78.5218 28.8889 78.4349 28.8 78.4349 28.6222C78.3479 28.4445 78.3479 28.2667 78.3479 28.0889C78.3479 28.2667 78.261 28.4445 78.261 28.6222C78.174 28.8 78.174 28.9778 78.174 29.0667L76.7827 33.2445H80.0001L78.5218 28.9778Z" fill="white"/>
<path d="M93.7391 38.4H91.7391L88.6087 32.8889H87.826V38.4H86.0869V25.9556H88.6087C89.2174 25.9556 89.7391 26.0445 90.2608 26.1333C90.7826 26.2222 91.2174 26.4 91.5652 26.6667C91.913 26.9333 92.2608 27.2889 92.4348 27.6445C92.6087 28.0889 92.7826 28.6222 92.7826 29.2445C92.7826 29.6889 92.6956 30.1333 92.5217 30.4889C92.3478 30.8445 92.1739 31.2 91.913 31.4667C91.6521 31.7333 91.3913 32 91.1304 32.1778C90.7826 32.3556 90.5217 32.5333 90.1739 32.6222L93.7391 38.4ZM91.1304 29.2445C91.1304 28.6222 90.9565 28.1778 90.5217 27.9111C90.1739 27.6445 89.5652 27.4667 88.7826 27.4667H87.913V31.2889H88.7826C89.5652 31.2889 90.1739 31.1111 90.6087 30.7556C90.8695 30.4889 91.1304 29.9556 91.1304 29.2445Z" fill="white"/>
<path d="M103.044 27.5556H100.261V38.4H98.6088V27.5556H95.8262V25.9556H103.131V27.5556H103.044Z" fill="white"/>
<path d="M114 25.9556L110.174 33.1556V38.4H108.522V33.2445L104.696 25.9556H106.609L108.957 30.5778C108.957 30.6667 109.043 30.7556 109.043 30.8445C109.043 30.9333 109.13 31.0222 109.13 31.1111C109.13 31.2 109.217 31.2889 109.217 31.3778C109.217 31.4667 109.304 31.5556 109.304 31.6445C109.304 31.5556 109.391 31.4667 109.391 31.3778C109.391 31.2889 109.478 31.2 109.478 31.1111C109.478 31.0222 109.565 30.9333 109.565 30.8445C109.565 30.7556 109.652 30.6667 109.652 30.6667L112.087 25.9556H114Z" fill="white"/>
<path d="M28.5218 3.91113L29.9131 4.35558C29.3044 5.86669 28.6088 7.20002 27.8262 8.35558C28.4349 8.26669 29.0436 8.1778 29.7392 8.1778C30.0871 7.55558 30.4349 6.93335 30.7827 6.31113L32.174 6.84447C30.8697 9.15558 29.5653 11.1111 28.261 12.6222C29.3044 12.5334 30.174 12.3556 30.8697 12.1778C30.6957 11.5556 30.5218 11.0222 30.3479 10.4L31.4784 10.0445C31.9131 11.1111 32.261 12.4445 32.6088 13.8667L31.3914 14.2222C31.3044 13.9556 31.3044 13.6889 31.2175 13.4222C30.0001 13.7778 28.174 13.9556 25.9131 14.2222L25.5653 12.8C26.0001 12.8 26.3479 12.8 26.7827 12.8C27.5653 11.9111 28.3479 10.8445 29.1305 9.60002C28.0871 9.7778 27.0436 9.86669 25.8262 10.0445L25.5653 8.71113C25.9131 8.71113 26.174 8.71113 26.5218 8.62224C27.1305 7.11113 27.8262 5.60002 28.5218 3.91113ZM26.0871 14.4889L27.3044 14.6667C27.2175 16.2667 26.9566 17.6 26.6957 18.7556L25.3044 18.3111C25.6523 17.0667 25.9131 15.8222 26.0871 14.4889ZM29.3044 14.4889C29.5653 15.3778 29.6523 16.5334 29.7392 17.9556L28.3479 18.0445C28.3479 16.5334 28.261 15.3778 28.0871 14.5778L29.3044 14.4889ZM31.3914 14.2222C31.7392 15.2889 32.0001 16.1778 32.174 17.0667L30.9566 17.5111C30.7827 16.4445 30.6088 15.4667 30.3479 14.4889L31.3914 14.2222ZM33.7392 4.00002L35.2175 4.1778C35.0436 5.06669 34.7827 5.86669 34.4349 6.5778H39.2175C39.2175 12.1778 39.1305 15.5556 38.9566 16.6222C38.7827 17.4222 38.4349 17.9556 38.0001 18.2222C37.4784 18.5778 36.6088 18.6667 35.2175 18.6667C34.8697 18.6667 34.5218 18.6667 34.0001 18.5778L33.9131 17.0667C34.3479 17.1556 34.8697 17.2445 35.3044 17.2445C36.5218 17.2445 37.3044 16.8889 37.3914 16.1778C37.6523 15.2889 37.8262 12.6222 37.8262 7.91113H33.7392C33.3044 8.71113 32.6957 9.42224 32.0871 10.0445L31.2175 8.80002C31.8262 8.08891 32.3479 7.3778 32.7827 6.5778C33.1305 6.04447 33.4784 5.15558 33.7392 4.00002ZM34.0001 9.95558C34.8697 11.3778 35.5653 12.6222 36.0871 13.6L34.6957 14.5778C34.261 13.4222 33.6523 12.0889 32.8697 10.6667L34.0001 9.95558Z" fill="white"/>
<path d="M49.0436 4H49.7392C51.6523 5.15556 53.9131 6.31111 56.3479 7.28889L55.7392 8.71111C55.5653 8.62222 55.3914 8.53333 55.2175 8.44444V12.6222H42.9566V8.53333C42.7827 8.62222 42.6088 8.71111 42.4349 8.8L41.8262 7.37778C44.087 6.48889 46.261 5.42222 48.3479 4.08889H49.0436V4ZM54.6088 13.3333V18.8444H53.1305V18.3111H45.1305V18.8444H43.6523V13.3333H54.6088ZM43.7392 8.17778H54.5218C53.5653 7.73333 52.6957 7.28889 51.9131 6.93333V7.55556H46.261V6.84444C45.3914 7.37778 44.6088 7.82222 43.7392 8.17778ZM48.3479 11.4667V9.24444H44.3479V11.4667H46.3479C46.087 11.0222 45.8262 10.4889 45.3914 9.95556L46.261 9.42222C46.7827 9.95556 47.1305 10.4889 47.3914 10.8444L46.5218 11.4667H48.3479ZM45.1305 15.3778H53.1305V14.4889H45.1305V15.3778ZM45.1305 17.2444H53.1305V16.2667H45.1305V17.2444ZM47.0436 6.48889H51.2175C50.4349 6.04444 49.7392 5.6 49.1305 5.24444C48.3479 5.68889 47.6523 6.04444 47.0436 6.48889ZM53.9131 11.4667V9.24444H49.7392V11.4667H51.7392L50.7827 10.7556C51.1305 10.3111 51.4783 9.86667 51.7392 9.33333L52.7827 9.77778C52.5218 10.4 52.174 10.9333 51.9131 11.3778H53.9131V11.4667Z" fill="white"/>
<path d="M58.4348 4.97786H64.8696V4.17786H66.2609V4.97786H72.6957V6.13341H66.2609V6.93341H71.5653V11.9112H70.7826C71.3913 12.6223 71.9131 13.2445 72.3479 13.7779L71.2174 14.5779C71.0435 14.3112 70.8696 14.0445 70.6957 13.689C70.2609 13.689 69.8261 13.7779 69.4783 13.7779V14.8445H72.7826V16.089H69.4783V17.4223C69.4783 17.9556 69.3913 18.3112 69.1305 18.489C68.8696 18.7556 68.5218 18.8445 67.9131 18.8445H66.3479L66.087 17.4223C66.6957 17.5112 67.2174 17.5112 67.5653 17.5112C67.9131 17.5112 68.087 17.4223 68.087 17.1556V16.089H58.5218V14.8445H68.087V13.8667C65.4783 14.0445 62.5218 14.2223 59.3044 14.4001L59.0435 13.1556C61.0435 13.1556 62.9566 13.0667 64.8696 12.9779V12.0001H59.6522V6.84452H64.8696V6.13341H58.4348V4.97786ZM61.0435 8.80008H64.8696V8.00008H61.0435V8.80008ZM64.8696 10.7556V9.86675H61.0435V10.7556H64.8696ZM62.1739 16.089C63.3044 16.5334 64.2609 16.9779 65.0435 17.5112L64 18.5779C63.3913 18.1334 62.4348 17.6001 61.2174 17.0667L62.1739 16.089ZM66.2609 8.00008V8.88897H70.087V8.00008H66.2609ZM70.1739 10.7556V9.86675H66.3479V10.7556H70.1739ZM66.2609 11.8223V12.8001C67.4783 12.8001 68.7826 12.7112 69.9131 12.6223C69.8261 12.4445 69.6522 12.2667 69.5653 12.1779L70.087 11.9112H66.2609V11.8223Z" fill="white"/>
<path d="M77.1305 7.64444H87.0435V8.97778H83.7392C83.3044 9.33333 82.8696 9.6 82.4349 9.86667C82.9566 10.5778 83.3914 11.2889 83.6522 12C84.7827 11.4667 85.9131 10.6667 86.9566 9.68889L88.087 10.7556C87.3914 11.3778 86.6957 11.9111 85.9131 12.3556C86.2609 13.2444 86.6957 13.9556 87.2175 14.6667C87.7392 15.3778 88.4348 16.0889 89.3044 16.8889L88.2609 18.2222C87.2175 17.2444 86.4348 16.2667 85.8262 15.3778C85.3914 14.6667 84.9566 13.9556 84.6088 13.0667C84.3479 13.1556 84.087 13.3333 83.9131 13.4222C84.087 14.1333 84.087 14.7556 84.087 15.4667C84.087 16.7111 83.9131 17.6 83.5653 18.1333C83.2175 18.6667 82.087 19.0222 80.174 19.0222L79.6522 17.4222C79.6522 17.5111 80.0001 17.5111 80.5218 17.5111C81.3914 17.5111 81.9131 17.4222 82.087 17.1556C82.3479 16.8889 82.5218 16.2667 82.5218 15.4667C82.5218 15.2 82.5218 15.0222 82.4349 14.7556C81.5653 15.4667 80.6957 16 80.0001 16.3556C78.8696 16.9778 77.3914 17.6 75.6522 18.2222L74.8696 16.8C76.6088 16.3556 78.087 15.7333 79.3914 15.1111C80.4349 14.5778 81.3914 13.9556 82.174 13.2444C82.174 13.0667 82.087 12.9778 82.087 12.8C82.087 12.6222 82.0001 12.5333 81.9131 12.3556C81.0435 12.9778 80.2609 13.4222 79.5653 13.7778C78.5218 14.2222 77.2175 14.7556 75.7392 15.2L74.9566 13.8667C76.5218 13.5111 77.8262 13.0667 78.9566 12.5333C79.8262 12.1778 80.6088 11.7333 81.3044 11.2C81.2175 11.0222 81.0435 10.7556 80.9566 10.5778C79.5653 11.2 78.0001 11.7333 76.174 12.0889L75.3914 10.7556C77.3914 10.4 78.9566 9.95555 80.0001 9.51111C80.5218 9.33333 80.9566 9.15556 81.3044 8.97778H76.8696V7.64444H77.1305ZM82.2609 4C82.4348 4.35556 82.6088 4.8 82.7827 5.24444H88.9566V8.53333H87.5653V6.57778H76.6957V8.44444H75.3044V5.15556H81.1305C80.9566 4.8 80.7827 4.53333 80.5218 4.17778L82.2609 4Z" fill="white"/>
<path d="M10.8695 39.9999C10.8695 39.9999 4.43476 16.5333 21.4782 10.2222C21.4782 10.2222 9.47824 17.0666 10.8695 39.9999Z" fill="white"/>
<path d="M5.04346 15.4667C5.04346 15.4667 10.6956 19.7333 8.86954 24.4445C8.86954 24.4445 8.60867 21.1556 5.04346 15.4667Z" fill="white"/>
<path d="M6.43477 6.48894C6.52173 6.75561 6.60869 6.93338 6.69564 7.11116C6.86955 7.46672 7.21738 7.73338 7.47825 8.00005C7.82608 8.44449 7.82608 9.15561 8.1739 9.60005C8.43477 9.86672 9.39129 9.95561 8.86955 10.5778C8.1739 11.2889 6.52173 9.95561 5.99999 9.68894C4.95651 9.06672 1.91303 7.82227 3.39129 6.40005C3.99999 5.86672 5.21738 4.88894 6.08695 5.06672C6.08695 5.33338 6.26086 6.04449 6.43477 6.48894Z" fill="white"/>
<path d="M3.21739 8.44446C3.21739 8.44446 6.26086 11.4667 10.087 12.0889C10.087 12.0889 10.3478 13.9556 9.91304 15.1111C9.91304 15.1111 6.26086 15.2889 4.17391 12.3556C4.08695 12.2667 2.60869 11.2889 3.21739 8.44446Z" fill="white"/>
<path d="M10.2607 11.1111C11.652 9.4222 14.3477 8.17776 15.2173 6.04442C15.3042 5.95553 16.5216 7.11109 16.6086 7.19998C18.3477 8.6222 17.3912 10.6666 15.9999 12.0889C14.5216 13.6 12.4347 13.6889 11.0434 15.0222C10.8694 13.7778 10.6955 11.6444 10.2607 11.1111C10.2607 11.2 10.2607 11.1111 10.2607 11.1111Z" fill="white"/>
<path d="M4.52173 5.06666C4.60869 4.7111 6.1739 4.17777 6.43477 4.08888C6.95651 3.9111 7.56521 3.73333 8.1739 3.82222C8.43477 3.82222 8.69564 3.9111 8.95651 3.99999C9.30434 4.17777 9.47825 4.35555 9.91303 4.44444C10.2609 4.53333 10.6087 4.62222 10.8696 4.7111C11.4782 4.88888 12.1739 5.06666 12.8696 5.06666C12.8696 5.06666 17.4782 4.88888 17.913 7.19999C17.913 7.19999 19.7391 3.37777 15.2174 1.15555C14.8696 0.977771 14.4348 0.888882 14.4348 0.888882C14.4348 0.888882 12.0869 -1.06667 9.99999 0.799993C7.82608 2.66666 9.65216 1.06666 9.65216 1.06666C9.65216 1.06666 5.47825 0.533326 4.52173 5.06666Z" fill="white"/>
<path d="M7.30437 7.02225C7.39133 7.11114 7.47828 7.28891 7.56524 7.46669C7.6522 7.55558 7.73915 7.73336 7.82611 7.82225C7.82611 8.00003 7.91307 8.08891 7.91307 8.1778C8.00002 8.35558 8.17393 8.53336 8.26089 8.26669C8.26089 8.08892 8.34785 7.82225 8.4348 7.64447C8.60872 7.11114 8.86959 6.5778 9.30437 6.22225C9.47828 6.04447 9.73915 5.86669 10 5.7778C10.1739 5.68892 10.2609 5.68892 10.4348 5.60003C10.5218 5.60003 10.8696 5.42225 10.8696 5.51114C10.7826 5.33336 10.4348 5.24447 10.2609 5.15558C10.1739 5.06669 10 5.06669 9.91307 5.06669C9.73915 4.9778 9.47828 4.88892 9.30437 4.80003C8.86959 4.71114 8.4348 4.53336 8.00002 4.62225C7.82611 4.62225 7.56524 4.71114 7.47828 4.80003C7.13046 4.88892 7.0435 5.06669 6.95654 5.33336C6.95654 5.51114 6.95654 5.7778 7.0435 6.04447C7.0435 6.22225 7.13046 6.48892 7.21741 6.5778C7.30437 6.75558 7.30437 6.84447 7.30437 7.02225Z" fill="white"/>
<path d="M11.5652 9.06665C11.5652 9.06665 14.3478 6.93332 14.6087 5.86665C14.6087 5.86665 13.5652 5.42221 12.7826 5.77776C12.6087 5.86665 12.5217 5.86665 12.5217 6.04443C12.5217 6.22221 12.5217 6.39998 12.5217 6.48887C12.5217 6.75554 12.4348 7.11109 12.1739 7.28887C12.0869 7.37776 11.3043 7.99998 11.5652 9.06665Z" fill="white"/>
<path d="M9.13043 9.33329C9.04348 9.06663 8.95652 8.79996 8.86956 8.53329C8.78261 8.17774 8.86956 7.73329 9.04348 7.37774C9.13043 7.19996 9.21739 7.02218 9.3913 6.8444C9.56522 6.66663 10.3478 5.68885 10.6087 6.22218C10.6087 6.31107 10.6087 6.57774 10.6957 6.57774C10.7826 6.66663 10.9565 6.39996 11.0435 6.39996C11.3043 6.22218 11.5652 6.13329 11.8261 6.22218C12 6.31107 12.087 6.39996 12.087 6.57774C12.087 6.75551 11.913 6.8444 11.8261 7.02218C11.7391 7.11107 11.6522 7.28885 11.5652 7.37774C11.3913 7.6444 11.1304 7.91107 11.0435 8.17774C10.9565 8.26663 10.9565 8.35551 10.8696 8.4444C10.7826 8.62218 10.6957 8.79996 10.6087 8.97774C10.5217 9.2444 10.3478 9.51107 10.2609 9.77774C10.1739 9.95551 10 10.0444 9.91304 10.0444C9.65217 9.95551 9.47826 9.77774 9.3913 9.51107C9.21739 9.51107 9.21739 9.42218 9.13043 9.33329Z" fill="white"/>
</g>
<defs>
<clipPath id="clip0">
<rect width="114" height="40" fill="white"/>
</clipPath>
</defs>
</svg>
