<svg width="128" height="40" viewBox="0 0 128 40" fill="none" xmlns="http://www.w3.org/2000/svg">
<path fill-rule="evenodd" clip-rule="evenodd" d="M20.6521 13.6039C20.6521 15.354 19.2297 16.7794 17.4831 16.7794C15.7366 16.7794 14.3142 15.354 14.3142 13.6039C14.3142 11.8538 15.7366 10.4285 17.4831 10.4285C19.2477 10.4285 20.6521 11.8538 20.6521 13.6039Z" fill="white"/>
<path fill-rule="evenodd" clip-rule="evenodd" d="M12.8017 17.465C12.8017 17.465 15.9707 17.7356 16.2227 20.9291V39.9999C16.2227 39.9999 12.6757 39.2061 12.4776 37.2394C12.2796 35.2728 12.2976 21.6688 12.2976 21.6688C12.2976 21.6688 12.3876 19.5759 9.21865 18.8181C7.52615 18.4212 6.57187 18.0784 4.89737 17.8078C4.03312 17.6634 4.28519 17.3748 4.28519 17.3748L12.8017 17.465Z" fill="white"/>
<path fill-rule="evenodd" clip-rule="evenodd" d="M22.5787 17.465C22.5787 17.465 19.4098 17.7356 19.1577 20.9291V39.9999C19.1577 39.9999 22.7048 39.2061 22.9028 37.2394C23.1009 35.2728 23.0829 21.6688 23.0829 21.6688C23.0829 21.6688 22.9929 19.5759 26.1618 18.8181C27.8363 18.4212 28.7906 18.0784 30.4831 17.8078C31.3473 17.6634 31.0773 17.3748 31.0773 17.3748L22.5787 17.465Z" fill="white"/>
<path d="M38.7834 30.6901V29.7699H127.604V30.6901H38.7834Z" fill="white"/>
<path fill-rule="evenodd" clip-rule="evenodd" d="M59.0215 21.0916C59.0215 21.669 58.5533 22.1381 57.9772 22.1381C57.401 22.1381 56.9329 21.669 56.9329 21.0916C56.9329 20.5143 57.401 20.0452 57.9772 20.0452C58.5713 20.0452 59.0215 20.5143 59.0215 21.0916Z" fill="white"/>
<path fill-rule="evenodd" clip-rule="evenodd" d="M83.4907 21.0916C83.4907 21.669 83.0226 22.1381 82.4464 22.1381C81.8702 22.1381 81.4021 21.669 81.4021 21.0916C81.4021 20.5143 81.8702 20.0452 82.4464 20.0452C83.0406 20.0452 83.4907 20.5143 83.4907 21.0916Z" fill="white"/>
<path fill-rule="evenodd" clip-rule="evenodd" d="M107.888 21.0916C107.888 21.669 107.42 22.1381 106.844 22.1381C106.267 22.1381 105.799 21.669 105.799 21.0916C105.799 20.5143 106.267 20.0452 106.844 20.0452C107.42 20.0452 107.888 20.5143 107.888 21.0916Z" fill="white"/>
<path fill-rule="evenodd" clip-rule="evenodd" d="M46.8318 14.5241H50.3428C51.6752 14.5241 52.4675 14.488 52.6835 14.3978V15.7149H52.6115C52.2874 15.6247 51.5312 15.5886 50.3428 15.5886H46.6157C46.5797 15.8412 46.4537 16.1479 46.2736 16.5268C46.2376 16.617 46.2016 16.6712 46.2016 16.7253H49.5866C50.955 16.7253 51.8193 16.6712 52.1434 16.5268V17.9161C51.7292 17.88 50.901 17.8259 49.6586 17.7898H45.8595C45.7695 17.9522 45.6254 18.1867 45.4454 18.4935C45.3013 18.7461 45.2473 18.9084 45.2473 18.9986H50.829C52.2514 18.9986 53.1156 18.9265 53.4397 18.8182V20.2075H53.3677C53.0436 20.1173 52.2154 20.0812 50.883 20.0812H49.1545C50.7569 21.3442 52.5035 22.1019 54.394 22.3545L53.3497 23.816C51.8373 23.1845 50.955 22.7695 50.7389 22.553C50.6489 22.7695 50.5949 23.0041 50.5949 23.2386V26.1976C50.5949 27.0456 50.6669 27.5688 50.811 27.7853H49.2265C49.2265 27.6049 49.2265 27.4425 49.2265 27.2801C49.2265 27.1177 49.2445 26.9553 49.2985 26.8291H43.0867C43.0867 27.1719 43.1047 27.4786 43.1587 27.7853H41.6462C41.7003 27.5688 41.7363 27.0456 41.7903 26.1976V23.3649C41.7903 22.986 41.7183 22.7154 41.5742 22.553C40.1878 23.4371 39.3776 23.9603 39.0895 24.1227C38.9454 23.8701 38.6573 23.5453 38.1892 23.1123C38.0992 23.0762 38.0272 23.0041 37.9731 22.9138C40.2778 22.0659 41.8983 21.1277 42.8706 20.0812H40.872C39.5936 20.1173 38.8554 20.1714 38.6573 20.2075V18.8182C38.8014 18.9084 39.5216 18.9445 40.872 18.9445H43.6988C44.0229 18.4393 44.221 18.0604 44.329 17.8078H42.4025C41.1061 17.8439 40.3859 17.8981 40.1878 17.9341V16.5449C40.3679 16.6712 41.1061 16.7433 42.4025 16.7433H44.8332C44.9772 16.2742 45.0853 15.9134 45.1753 15.6067H41.5922C40.4939 15.6428 39.8097 15.6969 39.5216 15.733V14.4159C39.7557 14.5061 40.4399 14.5422 41.5922 14.5422H45.4454C45.4994 13.9648 45.4994 13.4596 45.4454 13.0266C46.4537 13.1168 47.1019 13.2251 47.3719 13.3333C47.3719 13.4235 47.3359 13.4957 47.2279 13.5859C47.0118 13.8385 46.8678 14.1452 46.8318 14.5241ZM43.1047 22.4628V23.6536H49.3165V22.4628H43.1047ZM43.1047 24.7361V25.9269H49.3165V24.7361H43.1047ZM44.203 21.4705H48.0741C48.4883 21.4705 48.8124 21.4344 49.0464 21.3442C48.6863 21.1277 48.2182 20.7127 47.66 20.0812H44.4911C43.7529 20.8029 43.3207 21.2179 43.1767 21.3442C43.3567 21.4163 43.6988 21.4705 44.203 21.4705Z" fill="white"/>
<path fill-rule="evenodd" clip-rule="evenodd" d="M76.5404 14.037V15.4262C75.9823 15.3901 75.136 15.3541 73.9837 15.2999H71.1568C71.1568 16.184 71.1028 17.2124 71.0128 18.3852C71.0128 18.4574 71.0128 18.5295 71.0128 18.5656H75.01C76.1983 18.5656 77.1346 18.5295 77.7648 18.4393V19.8827C77.1706 19.8466 76.2524 19.7925 75.01 19.7564H71.4989C72.6873 23.0762 75.028 24.7722 78.521 24.8624C77.9629 25.3676 77.5307 25.8728 77.2066 26.378C73.4435 25.4037 71.2289 23.3829 70.5987 20.2616C70.2386 23.1664 68.0059 25.3315 63.9187 26.7569C63.5046 26.2517 62.9824 25.8367 62.3342 25.4939C66.1514 24.9887 68.5101 23.0762 69.4283 19.7564H65.9893C65.1251 19.7564 64.5129 19.7744 64.1888 19.8105C63.8287 19.8105 63.5226 19.8286 63.2885 19.8827V18.4934C63.8827 18.6197 64.7649 18.6558 65.8993 18.6197H69.5544C69.5544 18.2408 69.5544 17.6996 69.5544 16.9779C69.6084 16.2562 69.6444 15.6969 69.6984 15.2819H66.9436C66.0253 15.318 65.1791 15.3721 64.3868 15.4082V14.0189C65.071 14.1091 65.9533 14.1452 67.0156 14.1452H73.8396C75.2261 14.1993 76.1263 14.1633 76.5404 14.037Z" fill="white"/>
<path fill-rule="evenodd" clip-rule="evenodd" d="M98.8854 16.5448V16.9237C98.4712 16.8876 97.643 16.8335 96.4366 16.7974H93.3577C92.2774 16.8335 91.5932 16.8876 91.2511 16.9237V16.4907C90.2608 16.9959 89.5766 17.3387 89.1445 17.5011C89.5226 17.5372 90.2428 17.5552 91.3051 17.5552H98.8493C100.2 17.5552 101.064 17.5372 101.442 17.5011C101.388 17.88 101.37 18.4032 101.37 19.0708V19.8286C101.37 20.8028 101.424 21.3982 101.514 21.6508C101.334 21.6508 101.028 21.6508 100.614 21.6508C100.146 21.6508 99.6416 21.6328 99.0834 21.5787H91.2511C90.927 21.6147 90.6029 21.6508 90.2608 21.6508C89.9907 21.6508 89.7206 21.6508 89.4866 21.6508C89.0724 21.6508 88.7844 21.6508 88.6403 21.6508C88.6403 21.5245 88.6403 21.308 88.6403 21.0194C88.6403 20.6765 88.6583 20.2977 88.7123 19.8827V19.1971C88.6583 18.8543 88.6403 18.5475 88.6403 18.2589C88.6403 18.0063 88.6403 17.8258 88.6403 17.6995C88.4963 17.7898 88.0821 17.9521 87.3799 18.2047C87.2899 18.1145 87.1819 18.0243 87.0919 17.898C86.8038 17.483 86.6057 17.1944 86.4617 17.0139C89.5406 16.3464 92.2054 14.903 94.438 12.7198C95.4103 12.9364 95.9865 13.0807 96.1125 13.1529C96.1125 13.2431 96.0405 13.3152 95.8965 13.4055C97.9851 15.2097 100.578 16.184 103.657 16.3103C103.243 16.8155 102.973 17.2846 102.883 17.6995C101.694 17.5552 100.344 17.1763 98.8854 16.5448ZM92.1874 22.3545H97.9851C99.2995 22.3906 100.11 22.3725 100.434 22.2823C100.38 22.6973 100.362 23.3829 100.362 24.3031V26.5042C100.362 27.0996 100.38 27.5327 100.434 27.8213H98.8854C98.8854 27.695 98.8854 27.5507 98.8854 27.3883C98.8854 27.2259 98.9034 27.0455 98.9574 26.8831H90.927C90.927 27.2259 90.945 27.5687 90.999 27.9476H89.4686C89.5226 27.6048 89.5586 27.1357 89.6126 26.5042V24.2309C89.5766 23.7618 89.5226 23.3649 89.4686 23.0401C89.4686 22.6973 89.4686 22.4447 89.4686 22.2823C89.8287 22.3725 90.7289 22.3906 92.1874 22.3545ZM90.0087 18.5115V20.7126H94.42V18.5115H90.0087ZM90.927 23.2386V24.3031H98.9574V23.2386H90.927ZM90.927 25.115V25.9991H98.9574V25.115H90.927ZM93.4297 20.1353L92.1694 20.6405C92.0253 20.0992 91.7552 19.594 91.3231 19.1249L92.3674 18.6197C92.9076 19.2692 93.2497 19.7564 93.4297 20.1353ZM93.3757 15.9134H96.4546C97.0128 15.9134 97.3729 15.8953 97.4989 15.8592C97.4089 15.8592 97.3189 15.8231 97.2109 15.7329C96.0405 14.9751 95.3203 14.4339 95.0322 14.0911C94.8522 14.2174 94.7801 14.2535 94.8161 14.2174C93.6998 14.9751 92.8356 15.5164 92.2234 15.8592C92.4394 15.8953 92.8175 15.9134 93.3757 15.9134ZM95.6084 18.5115V20.7126H96.5266C96.8507 20.2977 97.2109 19.6301 97.571 18.6919C98.5072 18.9806 98.9934 19.179 99.0474 19.2692C99.0474 19.3053 98.9934 19.3775 98.9034 19.4497C98.5252 19.7383 98.1651 20.1714 97.787 20.7126H100.092V18.5115H95.6084Z" fill="white"/>
<path fill-rule="evenodd" clip-rule="evenodd" d="M118.853 15.5344L117.953 16.5448C117.305 15.8772 116.585 15.2638 115.774 14.7225C115.684 14.7947 115.594 14.9029 115.504 15.0292C114.334 16.4185 113.506 17.3026 112.983 17.6815C113.127 17.7717 113.596 17.8078 114.388 17.8078H116.837C117.539 17.8078 118.043 17.7897 118.385 17.7356C118.331 17.9882 118.313 18.4032 118.313 18.9986V21.4523C118.313 22.2462 118.331 22.7333 118.385 22.8957C118.241 22.8957 118.043 22.8957 117.755 22.8957C117.431 22.8957 117.053 22.8777 116.639 22.8235H114.154V25.6201L116.458 24.9345C116.314 24.7721 116.116 24.4834 115.828 24.1226C115.738 23.9963 115.648 23.87 115.54 23.7437L116.657 23.3648C116.891 23.6535 117.377 24.303 118.133 25.3134C118.457 25.7284 118.763 26.0712 119.051 26.3238L117.863 26.9552C117.629 26.5764 117.341 26.1975 117.017 25.8186C115.702 26.1073 114.28 26.6485 112.749 27.3883C112.515 26.9733 112.263 26.5764 111.975 26.1975C112.587 26.0351 112.875 25.6923 112.875 25.1871V19.4496C112.839 18.782 112.785 18.2769 112.731 17.9341C112.497 18.1506 112.245 18.331 111.957 18.4934C111.777 18.331 111.453 18.0603 110.985 17.6815C112.947 16.4185 114.37 14.7766 115.252 12.7739C116.368 13.1167 116.909 13.3332 116.855 13.4595C116.855 13.4956 116.801 13.5497 116.711 13.5858C116.531 13.676 116.386 13.7482 116.296 13.8384C116.585 14.091 116.909 14.3256 117.269 14.524C117.827 14.8488 118.331 15.1916 118.853 15.5344ZM117.035 19.9368V18.6738H114.154V19.9368H117.035ZM117.035 21.9034V20.7667H114.154V21.9034H117.035ZM114.856 16.1659L115.9 15.787C116.278 16.4546 116.476 16.9598 116.531 17.3026L115.486 17.5552C115.342 17.0861 115.144 16.617 114.856 16.1659ZM124.435 14.9571H126.181C126.884 14.9571 127.478 14.921 128 14.8308C127.91 15.2096 127.856 15.6246 127.856 16.0937C127.856 16.5628 127.91 16.9598 128 17.2845H126.325C126.325 17.1582 126.343 16.7613 126.397 16.0937C126.397 16.0035 126.415 15.9674 126.469 15.9674H120.312C120.258 16.6891 120.312 17.1402 120.456 17.3567H118.853C118.907 17.068 118.925 16.5448 118.925 15.787C118.889 15.5705 118.853 15.2457 118.853 14.7766C119.375 14.8668 120.042 14.921 120.888 14.9751H122.904C122.814 14.8488 122.724 14.6864 122.634 14.4699C122.454 13.9286 122.238 13.5317 122.004 13.2791L123.607 13.0265C123.607 13.0626 123.625 13.1348 123.679 13.2069C123.913 13.658 124.165 14.2534 124.435 14.9571ZM122.13 17.483H123.877C125.605 17.5191 126.487 17.501 126.541 17.4108C126.397 17.916 126.343 18.3851 126.397 18.8001V19.6842C126.343 20.478 126.379 20.9832 126.469 21.1997C126.055 21.1997 125.641 21.1997 125.209 21.1997C124.831 21.1997 124.543 21.1817 124.309 21.1456H121.158V22.5349H124.795C125.029 22.5709 125.425 22.5709 125.983 22.5349C126.397 22.4988 126.704 22.4627 126.902 22.4627C126.848 22.4627 126.83 22.8957 126.83 23.7798V25.8547C126.83 26.3599 126.848 26.9913 126.902 27.7491H125.353C125.389 27.3341 125.425 26.8831 125.425 26.432H121.23C121.23 27.262 121.23 27.713 121.23 27.7491H119.771C119.862 27.5507 119.916 27.0815 119.916 26.3599V19.4857C119.861 18.6918 119.825 17.9882 119.771 17.4108C120.222 17.4649 121.014 17.483 122.13 17.483ZM125.137 20.1352V18.5655H121.158V20.1352H125.137ZM125.425 23.5272H121.158V25.5479H125.425V23.5272Z" fill="white"/>
<path d="M40.2059 33.198H42.3306C42.8707 33.7032 43.3929 34.1182 43.915 34.4429C44.0951 34.5512 44.4192 34.7136 44.9233 34.9481C44.8693 35.0383 44.8333 35.1285 44.7793 35.2368C44.7433 35.309 44.7073 35.4172 44.6533 35.5255C44.5632 35.4894 44.4732 35.4533 44.3832 35.3992C44.3472 35.3811 44.2571 35.345 44.1131 35.2729V35.6698H42.3486V36.59H44.0411V37.1132H42.3486V38.1777H44.7433V38.737H39.3237V38.1777H41.7004V37.1132H40.0439V36.59H41.7004V35.6698H39.9899V35.2909C39.9178 35.327 39.8278 35.3631 39.7378 35.3992C39.6298 35.4533 39.5397 35.4894 39.4497 35.5435L39.4137 35.5074C39.3777 35.4353 39.3237 35.345 39.2877 35.2368C39.2156 35.1105 39.1796 35.0203 39.1616 34.9842C39.7378 34.7496 40.1519 34.5512 40.422 34.4068C40.6561 34.2805 40.9081 34.1001 41.1782 33.8656C41.2142 33.8295 41.2682 33.7754 41.3043 33.7393H40.2059V33.198ZM42.0425 33.7573C41.8264 34.0279 41.5743 34.2805 41.2863 34.5151C40.9982 34.7316 40.7101 34.9301 40.386 35.0744H43.771C43.4109 34.8399 43.1228 34.6594 42.9247 34.5151C42.6186 34.2805 42.3306 34.0279 42.0425 33.7573Z" fill="white"/>
<path d="M51.7655 33.1439H51.8195C51.9095 33.18 52.0176 33.2341 52.1256 33.3243L52.4137 33.5409C52.5037 33.613 52.5577 33.6491 52.5937 33.7032C52.6658 33.7574 52.7198 33.8115 52.7738 33.8837C52.7018 33.9378 52.6478 33.9919 52.5937 34.028C52.5217 34.0821 52.4677 34.1363 52.4317 34.1904H55.0065V34.7677H51.5674V35.724H54.3403V36.0668C54.3403 36.1931 54.3223 36.3735 54.3042 36.59C54.3042 36.7344 54.2862 36.9509 54.2682 37.2576V37.3478L54.1782 37.9432C54.1242 38.1777 54.0342 38.3762 53.9081 38.5206C53.8181 38.5747 53.7101 38.6288 53.566 38.6829C53.422 38.719 53.2779 38.7551 53.1159 38.7731H52.5577C52.5037 38.7731 52.4497 38.7731 52.3957 38.7731L52.3777 38.719C52.3597 38.6649 52.3237 38.5747 52.3057 38.4484C52.2696 38.3221 52.2516 38.2499 52.2336 38.1777L52.2696 38.1417C52.5217 38.1597 52.7378 38.1597 52.9178 38.1417C53.1699 38.1236 53.35 38.0875 53.44 38.0334C53.53 37.871 53.584 37.6184 53.638 37.2576C53.6561 37.0952 53.6741 36.8246 53.7101 36.4457V36.2653H51.5314C51.4414 36.8065 51.2794 37.2395 51.0993 37.6004C50.9192 37.9252 50.6132 38.286 50.199 38.6829C50.145 38.719 50.109 38.7551 50.037 38.7912C49.965 38.8453 49.929 38.8814 49.8929 38.8994L49.8209 38.8453L49.6229 38.6288L49.4248 38.4303C49.8389 38.1236 50.145 37.7808 50.3791 37.438C50.6132 37.0591 50.7752 36.6441 50.8652 36.139L50.9012 35.7601C50.9192 35.6157 50.9373 35.4894 50.9373 35.3812V34.7317H49.4428V34.1543H52.1976C52.1796 34.1363 52.0536 34.046 51.8555 33.8837C51.6755 33.7393 51.4954 33.595 51.3334 33.4506C51.3874 33.3965 51.4594 33.3424 51.5314 33.2883C51.6215 33.2702 51.6935 33.198 51.7655 33.1439Z" fill="white"/>
<path d="M60.8041 33.162L61.0562 33.2883C61.1462 33.3424 61.2363 33.3785 61.3083 33.4146C61.2543 33.5409 61.1642 33.7393 61.0742 33.9919C60.9842 34.2445 60.9122 34.3889 60.8942 34.425L60.8401 34.4971V38.8814H60.264V35.5797L60.21 35.6158L59.9939 35.9766C59.9039 36.1209 59.8318 36.2292 59.7598 36.3014C59.7238 36.2112 59.6698 36.1029 59.6158 35.9946L59.4897 35.6879C59.7598 35.291 60.0119 34.8399 60.246 34.3347C60.426 33.9739 60.5881 33.613 60.7141 33.2883C60.7501 33.2702 60.7681 33.2161 60.8041 33.162ZM61.1102 38.1417H65.2515V38.701H61.1102V38.1417ZM62.5146 33.162C62.6587 33.2161 62.8207 33.3244 63.0368 33.5048L63.5049 33.9198C63.4509 33.9739 63.3789 34.0461 63.3249 34.1002C63.2709 34.1543 63.2169 34.2265 63.1448 34.2987L63.1088 34.3528H65.1074V34.9301H61.2363V34.3708H63.1088C62.9828 34.2084 62.8387 34.0461 62.6587 33.8837L62.1725 33.5048C62.2086 33.4687 62.2626 33.3965 62.3346 33.3244C62.4246 33.2522 62.4966 33.18 62.5146 33.162ZM62.1545 35.1827C62.3166 35.6158 62.4426 36.0307 62.5687 36.4637C62.6947 36.8968 62.8027 37.3298 62.8748 37.7628C62.7847 37.7808 62.6767 37.8169 62.5867 37.835C62.4966 37.853 62.4066 37.8711 62.2986 37.9071C62.2086 37.5102 62.1005 37.0591 61.9565 36.554C61.8304 36.0668 61.7044 35.6699 61.6144 35.3632C61.6324 35.3632 61.6864 35.3451 61.8124 35.309C61.8845 35.2729 62.0105 35.2369 62.1545 35.1827ZM64.0991 35.1647L64.3872 35.2188C64.4952 35.2549 64.6033 35.273 64.6753 35.291C64.5673 35.7601 64.4592 36.2112 64.3512 36.6261C64.2071 37.1494 64.0811 37.5643 63.9731 37.8711L63.9371 37.8891C63.847 37.853 63.757 37.8169 63.667 37.7808L63.3789 37.7087C63.5229 37.3298 63.649 36.9509 63.757 36.5359C63.865 36.157 63.9731 35.7601 64.0451 35.3451C64.0631 35.291 64.0811 35.2188 64.0991 35.1647Z" fill="white"/>
<path d="M70.6888 33.1439C70.7609 33.162 70.8509 33.198 70.9409 33.2161L71.193 33.3063C71.175 33.3424 71.121 33.5409 71.0129 33.8837C70.9409 34.1182 70.8869 34.2986 70.8149 34.461V38.8994H70.2567V35.5075C70.1847 35.5977 70.1127 35.724 70.0226 35.8503C69.9326 35.9766 69.8786 36.0487 69.8606 36.0668C69.8246 35.9946 69.7886 35.8864 69.7526 35.7601L69.6445 35.4173C69.6985 35.309 69.7706 35.1647 69.8966 34.9662C70.0407 34.7497 70.1307 34.6054 70.1307 34.5873C70.1847 34.461 70.2747 34.2445 70.3827 33.9558C70.4908 33.6491 70.5628 33.4326 70.6168 33.3424C70.6528 33.2702 70.6708 33.198 70.6888 33.1439ZM71.193 33.613H72.4534V34.0821C72.3633 34.3528 72.2553 34.6054 72.1293 34.8399L71.8952 35.2549C71.8592 35.291 71.8232 35.3271 71.8232 35.3812H72.5074V35.8142C72.4894 36.0668 72.4714 36.2833 72.4534 36.4276C72.4354 36.5359 72.4173 36.6802 72.3993 36.8426C72.3813 36.8967 72.3453 37.023 72.2913 37.2035C72.2373 37.3478 72.2013 37.4741 72.2013 37.5643C72.3813 37.8169 72.7234 38.0154 73.2276 38.1236C73.5157 38.1958 73.8578 38.2319 74.2719 38.2499H74.9021C74.9921 38.2499 75.0821 38.2319 75.1902 38.2319C75.2802 38.2319 75.3702 38.2319 75.4422 38.2319C75.4242 38.304 75.4062 38.3762 75.4062 38.4845L75.3702 38.7371L75.3342 38.8092C75.2802 38.8092 75.2262 38.8092 75.1542 38.8092H74.9921H73.9838C73.3536 38.7731 72.8855 38.701 72.5974 38.5747C72.4354 38.5025 72.2193 38.3401 71.9312 38.0875C71.8772 38.1777 71.7872 38.286 71.6791 38.4484C71.5171 38.6829 71.4091 38.8092 71.391 38.8273C71.355 38.8453 71.319 38.8814 71.301 38.9175C71.265 38.8814 71.193 38.8092 71.103 38.719L70.8869 38.4845C70.9229 38.4303 70.9949 38.3582 71.0489 38.286C71.121 38.2138 71.175 38.1236 71.265 38.0334L71.4271 37.8349C71.4991 37.7628 71.5351 37.6906 71.5531 37.6184C71.5711 37.5282 71.5351 37.438 71.4631 37.3298C71.337 37.1493 71.283 37.0591 71.265 37.0591C71.229 36.9689 71.211 36.8967 71.193 36.8065C71.175 36.7344 71.157 36.6622 71.139 36.5539C71.211 36.5178 71.301 36.4818 71.373 36.4637C71.4451 36.4457 71.5171 36.4096 71.6071 36.3916L71.7151 36.6983C71.7512 36.8246 71.7872 36.9148 71.8232 37.005L71.8592 36.9689C71.8952 36.7524 71.9492 36.5539 71.9672 36.3916C71.9852 36.2833 72.0032 36.1931 72.0212 36.1029V35.9405H71.229V35.4173C71.283 35.309 71.373 35.1647 71.4811 35.0023C71.6251 34.7677 71.7151 34.6234 71.7331 34.5873L71.8412 34.3167C71.8772 34.2445 71.8952 34.1904 71.8772 34.1543H71.229V33.613H71.193ZM73.6057 33.1439H74.1098V33.595H75.1361V34.4971H75.4242V34.9842H75.1361V35.9044H74.1098V36.2653H75.3162V36.7524H74.1098V37.1493H75.4242V37.6365H74.1098V38.0334H73.6057V37.6365H72.5074V37.1493H73.6057V36.7524H72.6874V36.2653H73.6057V35.9044H72.8495V35.4353H73.6057V34.9842H72.5254V34.4971H73.6057V34.0641H72.8495V33.595H73.6057V33.1439ZM74.1098 34.046V34.4791H74.65V34.046H74.1098ZM74.1098 34.9662V35.4173H74.65V34.9662H74.1098Z" fill="white"/>
<path d="M83.1667 33.162C83.2027 33.2161 83.2567 33.2883 83.2927 33.3785L83.3648 33.5589H85.5975V34.0641H83.3828V34.4249H85.0753V35.2008H85.5975V35.6699H85.0753V36.5178H83.4728L83.7609 36.8967C83.8689 37.0411 83.977 37.1674 84.085 37.2937C84.229 37.2035 84.3911 37.0772 84.5891 36.9328C84.6612 36.8787 84.7692 36.7885 84.9132 36.6802C84.9673 36.7163 85.0393 36.7704 85.1473 36.8607C85.2193 36.9148 85.3094 36.9689 85.3814 37.0411C85.3634 37.0411 85.2553 37.1493 85.0213 37.3117C84.8772 37.42 84.7512 37.5102 84.6432 37.5823C84.5891 37.6004 84.5531 37.6365 84.5171 37.6545L84.5351 37.7086C84.5711 37.7628 84.6432 37.8169 84.7512 37.871L84.9132 37.9612C84.9673 37.9973 85.0753 38.0515 85.2193 38.1417C85.3994 38.2319 85.5074 38.304 85.5614 38.3401C85.5074 38.4303 85.4534 38.5025 85.3994 38.5927C85.3454 38.6829 85.3094 38.7551 85.2553 38.8453C84.9853 38.7371 84.7332 38.5747 84.4811 38.3762C84.265 38.1958 84.049 37.9973 83.8329 37.7628C83.7789 37.6906 83.7069 37.6004 83.6168 37.4741C83.5268 37.3478 83.4548 37.2576 83.4008 37.1854V38.2499C83.3468 38.4845 83.2567 38.6649 83.1127 38.7551C83.0227 38.8092 82.9146 38.8453 82.7526 38.8634H82.1224C82.1044 38.7912 82.0864 38.701 82.0684 38.6288C82.0504 38.5747 82.0504 38.5025 82.0324 38.3943V38.3401C82.1764 38.3401 82.2844 38.3401 82.3565 38.3582C82.4825 38.3582 82.5905 38.3582 82.6986 38.3582C82.7526 38.304 82.8066 38.2499 82.8246 38.1958V36.5359H81.3121V36.0848H82.8246V35.7059H80.916V36.157C80.916 36.2472 80.898 36.3735 80.898 36.4998C80.898 36.6081 80.88 36.7344 80.88 36.8787V36.9689C80.808 37.4019 80.754 37.7267 80.682 37.9432C80.5919 38.304 80.4659 38.6108 80.3218 38.8634C80.2318 38.7912 80.1418 38.719 80.0698 38.6288C79.9977 38.5566 79.9257 38.4664 79.8357 38.3762C80.0518 37.9612 80.1958 37.438 80.2678 36.8246C80.2858 36.6983 80.3038 36.3555 80.3399 35.7601V35.1466V33.5589H82.7346C82.7166 33.5048 82.6806 33.4506 82.6265 33.3604C82.5725 33.2883 82.5545 33.2341 82.5545 33.2341V33.18L82.9686 33.1439C83.0587 33.1439 83.1307 33.1439 83.1667 33.162ZM82.3925 37.4019H82.4285C82.4465 37.4561 82.4645 37.5463 82.5005 37.6365C82.5365 37.7628 82.5545 37.8349 82.5545 37.871C82.3565 37.9793 82.1224 38.1056 81.8703 38.2319C81.6723 38.3221 81.3662 38.4664 80.952 38.6288H80.916C80.88 38.5386 80.844 38.4664 80.808 38.3943C80.772 38.3221 80.736 38.2319 80.718 38.1597C80.862 38.1056 81.0961 38.0154 81.4562 37.871C81.7983 37.7267 82.0864 37.5823 82.3205 37.4741L82.3925 37.4019ZM80.916 34.046V35.1827H82.8246V34.876H81.3121V34.4249H82.8246V34.0641H80.916V34.046ZM81.5642 36.6081H81.6002C81.7083 36.6802 81.8163 36.7704 81.9243 36.8787C81.9783 36.9328 82.0684 37.023 82.2124 37.1854C82.1404 37.2395 82.0324 37.2937 81.9243 37.3839C81.8163 37.4561 81.7623 37.4921 81.7443 37.5102H81.7263C81.6542 37.438 81.5642 37.3298 81.4202 37.1854C81.2941 37.0411 81.1861 36.9328 81.1321 36.8607C81.1861 36.8246 81.2581 36.7704 81.3302 36.7344C81.4202 36.6802 81.4922 36.6441 81.5642 36.6081ZM83.4008 34.8579V35.1647H84.5171V34.8579H83.4008ZM83.4008 35.6518V36.0487H84.5171V35.6518H83.4008Z" fill="white"/>
<path d="M91.8453 34.5512H91.8994C91.9534 34.5873 92.0254 34.6414 92.1334 34.6956C92.2415 34.7677 92.3135 34.8038 92.3675 34.8399C92.3135 34.894 92.2235 35.0203 92.0794 35.1827C91.9534 35.3271 91.8814 35.4353 91.8453 35.4714V35.5255C92.1514 35.9766 92.3675 36.2833 92.5115 36.4457C92.5836 36.5359 92.7096 36.6622 92.9257 36.8607C93.1237 36.6802 93.3218 36.4637 93.5018 36.2111C93.6459 35.9946 93.7899 35.742 93.97 35.4533L93.952 35.3992C93.898 35.3631 93.8259 35.291 93.7179 35.2008L93.4118 34.9482L93.3578 34.894C93.4118 34.8399 93.4838 34.7858 93.5919 34.7136C93.6819 34.6414 93.7539 34.5873 93.8079 34.5512C94.186 34.8579 94.4561 35.0745 94.6182 35.2008C95.0323 35.5436 95.3924 35.8683 95.6985 36.1931C95.6265 36.2472 95.5365 36.3374 95.4104 36.4457L95.2124 36.6081C95.0323 36.4276 94.9063 36.3013 94.8522 36.2472C94.7082 36.1029 94.5822 35.9946 94.4741 35.9044L94.3841 35.8322C94.2761 36.0127 94.114 36.2472 93.88 36.59C93.6999 36.8426 93.5378 37.0591 93.3758 37.2756C93.7539 37.5463 94.168 37.7628 94.6002 37.9432L95.7345 38.3582C95.6805 38.4303 95.6265 38.5025 95.5725 38.5927C95.5184 38.6829 95.4464 38.7731 95.3924 38.8634L95.3564 38.8994C94.8342 38.7731 94.3841 38.5927 93.97 38.3762C93.7359 38.2499 93.4658 38.0695 93.1237 37.8169L93.0157 37.7086C92.9617 37.6726 92.9257 37.6545 92.8897 37.6545C92.7996 37.6545 92.6916 37.7086 92.5656 37.8169C92.3855 37.9793 92.2955 38.0695 92.2775 38.0875C91.9174 38.286 91.6113 38.4484 91.3232 38.5747C91.0531 38.701 90.729 38.8092 90.3869 38.8994C90.3509 38.8453 90.2969 38.7731 90.2249 38.6649L90.0088 38.3762V38.3221C90.603 38.1597 90.9991 38.0515 91.1971 37.9793C91.6653 37.7989 92.0794 37.5643 92.4395 37.2576C92.3135 37.1132 92.2054 37.005 92.1514 36.9509C92.0434 36.8426 91.9534 36.7344 91.8814 36.6441C91.8273 36.572 91.7553 36.4637 91.6653 36.3194C91.5753 36.175 91.5032 36.0668 91.4492 36.0127L91.3952 35.9405C91.1791 36.1029 90.9991 36.2472 90.855 36.3374C90.765 36.4096 90.657 36.4637 90.567 36.5359C90.4769 36.4637 90.3869 36.3916 90.3149 36.3374C90.2249 36.2653 90.1528 36.1931 90.0808 36.1209C90.693 35.724 91.1431 35.3812 91.4312 35.0745L91.8453 34.5512ZM92.9617 33.1439L93.0157 33.162C93.0517 33.2341 93.1057 33.3243 93.1597 33.4506C93.2318 33.595 93.2678 33.7032 93.3038 33.7574H95.6805V34.2986H90.0808V33.7574H92.6556C92.6196 33.6672 92.5836 33.5769 92.5296 33.4867C92.4935 33.3965 92.4395 33.3243 92.4035 33.2522V33.198H92.4755C92.5115 33.198 92.5836 33.18 92.6736 33.18L92.9617 33.1439Z" fill="white"/>
<path d="M102.126 33.1439H102.774V33.2341C102.774 33.3243 102.756 33.4146 102.756 33.5048C102.756 33.613 102.738 33.6852 102.738 33.7213V33.9197H105.943V34.5151H102.666C102.666 34.5512 102.63 34.6775 102.594 34.876C102.558 35.0384 102.54 35.1286 102.54 35.1827L102.558 35.2729H105.169V35.8142C105.061 36.139 104.917 36.4998 104.701 36.8607C104.593 37.023 104.431 37.2756 104.215 37.5823C104.467 37.7267 104.773 37.8891 105.133 38.0334C105.349 38.1236 105.619 38.2319 105.943 38.3582C105.907 38.4484 105.871 38.5206 105.835 38.6108C105.799 38.701 105.763 38.7731 105.727 38.8634L105.673 38.8994C105.313 38.7731 104.899 38.5927 104.485 38.3762C104.287 38.268 104.053 38.1236 103.765 37.9612C103.297 38.286 102.936 38.5206 102.666 38.6288C102.486 38.719 102.234 38.7912 101.874 38.8814C101.82 38.8092 101.766 38.7371 101.694 38.6468C101.64 38.5927 101.586 38.5206 101.496 38.4123V38.3762C101.892 38.268 102.198 38.1597 102.432 38.0515C102.774 37.9252 103.062 37.7628 103.297 37.5823C103.117 37.3839 102.954 37.2035 102.846 37.0772C102.702 36.8787 102.558 36.6802 102.432 36.4457C102.378 36.3555 102.342 36.3013 102.324 36.2472C102.27 36.175 102.252 36.139 102.234 36.1209C101.928 36.8787 101.676 37.42 101.46 37.7447L100.92 38.3943C100.866 38.4484 100.812 38.5025 100.74 38.5747L100.542 38.7371C100.47 38.6649 100.398 38.5747 100.29 38.4664C100.2 38.3582 100.146 38.304 100.11 38.268C100.146 38.2319 100.182 38.1958 100.218 38.1777C100.47 37.9252 100.632 37.7447 100.722 37.6184C100.884 37.4019 101.082 37.0591 101.316 36.6081C101.424 36.3374 101.532 36.0668 101.622 35.8142C101.766 35.3812 101.892 34.9662 101.982 34.5693L101.964 34.4971H100.11V33.9197H102.054V33.7032C102.054 33.6491 102.054 33.5409 102.072 33.4326C102.126 33.2883 102.126 33.198 102.126 33.1439ZM102.756 35.8503C102.972 36.1931 103.117 36.4276 103.207 36.5539C103.351 36.7704 103.531 36.9869 103.747 37.2035C103.909 37.0411 104.071 36.8426 104.215 36.572C104.305 36.4096 104.413 36.175 104.557 35.8503H102.756Z" fill="white"/>
<path d="M110.517 33.3784H115.99V33.9377H113.578V36.2832H116.116V36.8606H113.578V38.8994H112.966V36.8786H110.355V36.3013H112.947V33.9377H110.517V33.3784ZM111.381 34.3166L111.417 34.3347C111.507 34.497 111.615 34.6775 111.741 34.8759C111.867 35.0924 111.993 35.309 112.101 35.5255L112.137 35.5976C112.047 35.6518 111.957 35.6878 111.867 35.742C111.777 35.7961 111.687 35.8502 111.597 35.9044H111.561C111.471 35.7059 111.345 35.4533 111.201 35.1827C111.111 35.0383 111.039 34.894 110.967 34.7677C110.931 34.6955 110.895 34.6233 110.859 34.5692C110.877 34.5692 110.931 34.5331 111.039 34.479C111.183 34.4429 111.291 34.3888 111.381 34.3166ZM115.198 34.2986C115.288 34.3527 115.378 34.4068 115.486 34.479C115.576 34.5331 115.648 34.5873 115.702 34.6233C115.486 34.9842 115.324 35.2548 115.198 35.4172C115.144 35.4894 115.036 35.6157 114.91 35.7961C114.856 35.8502 114.802 35.9044 114.748 35.9585C114.694 35.9224 114.622 35.8683 114.514 35.7961L114.244 35.6157V35.5796C114.28 35.5435 114.352 35.4533 114.46 35.327C114.568 35.1827 114.658 35.0744 114.73 34.9842L114.91 34.6955C114.982 34.5873 115.054 34.497 115.108 34.4249C115.144 34.3708 115.18 34.3347 115.198 34.2986Z" fill="white"/>
<path d="M122.544 33.1439C122.653 33.162 122.743 33.198 122.851 33.2161C122.887 33.2341 122.995 33.2702 123.175 33.3243C123.031 33.5769 122.887 33.8115 122.743 34.028C122.544 34.3347 122.346 34.6234 122.148 34.9121L122.076 35.0023H123.031H123.049H123.643L124.183 34.9842L124.777 34.9482C124.831 34.9482 124.867 34.9482 124.921 34.9482L124.903 34.894L124.363 34.3708C124.183 34.2084 124.057 34.0641 123.967 33.9739C124.039 33.9197 124.129 33.8656 124.201 33.7934C124.273 33.7393 124.345 33.6852 124.453 33.613C124.723 33.8295 124.993 34.0821 125.263 34.3528C125.533 34.6414 125.875 35.0023 126.236 35.4533L126.29 35.5255C126.218 35.5796 126.146 35.6518 126.038 35.742L125.803 35.9766C125.785 35.9585 125.749 35.8864 125.677 35.7962C125.569 35.6699 125.497 35.5616 125.443 35.4894L124.507 35.5255L123.121 35.5796H122.707L122.689 35.5977H122.13H120.582V35.4714C120.564 35.3992 120.546 35.309 120.546 35.2188C120.546 35.1647 120.546 35.1105 120.546 35.0745V35.0023H120.636C120.726 35.0203 120.852 35.0203 120.996 35.0384H121.356C121.68 34.6234 121.95 34.2626 122.166 33.9378C122.328 33.6311 122.472 33.3785 122.544 33.1439ZM121.05 36.2653H125.713V38.9175H125.101V38.5566H121.662V38.9175H121.05V36.2653ZM121.68 36.8065V37.9973H125.119V36.8065H121.68Z" fill="white"/>
<path d="M1.99859 14.1633L2.14264 13.7123C2.32269 13.7664 2.48474 13.7664 2.62878 13.7484C2.77282 13.7123 2.91687 13.6401 3.0429 13.5138C3.16894 13.3875 3.27697 13.2251 3.367 13.0267C3.43902 12.8462 3.47503 12.6839 3.47503 12.5215C3.47503 12.3591 3.45703 12.2328 3.385 12.1245C3.31298 12.0163 3.24096 11.9441 3.13293 11.908C3.0249 11.8539 2.91687 11.8539 2.80883 11.89C2.7008 11.9261 2.59277 11.9982 2.46673 12.1245C2.39471 12.1967 2.25067 12.3771 2.0346 12.6658C1.81854 12.9545 1.65649 13.153 1.54846 13.2432C1.38641 13.3695 1.24237 13.4597 1.08032 13.4777C0.918273 13.5138 0.756224 13.4777 0.594176 13.4236C0.414123 13.3514 0.27008 13.2251 0.162048 13.0627C0.054016 12.9004 0 12.7019 0 12.4854C0 12.2689 0.054016 12.0343 0.144043 11.7998C0.252075 11.5472 0.378112 11.3307 0.558166 11.1683C0.720214 11.0059 0.900267 10.9157 1.09833 10.8796C1.29638 10.8435 1.51245 10.8616 1.71051 10.9337L1.56646 11.3848C1.3324 11.3126 1.13434 11.3307 0.972289 11.4209C0.810241 11.5111 0.666198 11.6915 0.558166 11.9622C0.450134 12.2328 0.414123 12.4493 0.468139 12.6297C0.522155 12.7921 0.612182 12.9184 0.756224 12.9725C0.882262 13.0267 1.0083 13.0267 1.11633 12.9725C1.24237 12.9184 1.40442 12.7199 1.65649 12.3771C1.89056 12.0343 2.07061 11.8178 2.19665 11.6915C2.37671 11.5291 2.55676 11.4209 2.73681 11.3848C2.91687 11.3487 3.09692 11.3668 3.29498 11.4389C3.47503 11.5111 3.63708 11.6374 3.74511 11.8178C3.87115 11.9982 3.92516 12.1967 3.94317 12.4313C3.94317 12.6658 3.90716 12.9184 3.79913 13.153C3.67309 13.4597 3.51104 13.7123 3.33099 13.8927C3.15094 14.0731 2.95288 14.1814 2.71881 14.2175C2.46673 14.2716 2.23266 14.2535 1.99859 14.1633Z" fill="white"/>
<path d="M4.8435 11.0058L1.67456 8.96698L1.94464 8.552L5.09558 10.5908L4.8435 11.0058Z" fill="white"/>
<path d="M5.70782 9.61661L2.98901 7.01851L3.34912 6.63962L6.84216 7.25306L4.69952 5.21427L5.02362 4.87146L7.74242 7.46957L7.38232 7.84846L3.88928 7.23501L6.03192 9.27381L5.70782 9.61661Z" fill="white"/>
<path d="M9.29082 4.63689L9.05675 4.258L10.4252 3.44609L11.1454 4.65493C11.0373 4.94361 10.8933 5.19621 10.7132 5.43076C10.5332 5.64727 10.3351 5.82769 10.1011 5.97203C9.77697 6.17049 9.45287 6.26071 9.11077 6.27875C8.76867 6.29679 8.46258 6.22462 8.17449 6.0442C7.88641 5.86377 7.65234 5.61118 7.45428 5.30446C7.27422 4.99774 7.16619 4.65493 7.13018 4.31213C7.09417 3.96932 7.16619 3.64456 7.32824 3.37392C7.49029 3.08525 7.74236 2.85069 8.06646 2.67027C8.30053 2.52593 8.5346 2.43572 8.76867 2.39963C9.00274 2.36355 9.2188 2.38159 9.39885 2.45376C9.57891 2.52593 9.77697 2.65223 9.95702 2.83265L9.63292 3.17546C9.48888 3.03112 9.34484 2.94091 9.2188 2.88678C9.09276 2.83265 8.94872 2.81461 8.76867 2.85069C8.60662 2.86874 8.44457 2.94091 8.26452 3.03112C8.06646 3.13937 7.92242 3.28371 7.81439 3.42805C7.70635 3.57239 7.63433 3.71673 7.61633 3.86107C7.58032 4.00541 7.58032 4.14975 7.59832 4.29409C7.63433 4.54668 7.72436 4.78123 7.8684 5.01578C8.04845 5.30446 8.22851 5.52097 8.44457 5.64726C8.66064 5.77356 8.89471 5.84573 9.12877 5.82769C9.38085 5.80965 9.59691 5.73748 9.81298 5.61118C9.99303 5.50293 10.1551 5.35859 10.2991 5.17816C10.4252 4.99774 10.5152 4.8534 10.5692 4.70906L10.2091 4.11366L9.29082 4.63689Z" fill="white"/>
<path d="M12.2975 4.79921L11.1992 1.19073L11.6674 1.04639L12.6396 4.22185L14.4042 3.68058L14.5302 4.11359L12.2975 4.79921Z" fill="white"/>
<path d="M15.3585 3.95129L15.1064 0.198466L17.8072 0L17.8433 0.45106L15.6286 0.595399L15.7006 1.75011L17.7712 1.60577L17.8072 2.03879L15.7366 2.18313L15.8267 3.46414L18.1313 3.30176L18.1674 3.75282L15.3585 3.95129Z" fill="white"/>
<path d="M20.8142 4.0776L21.8945 0.469116L23.2449 0.884091C23.479 0.956261 23.6591 1.02843 23.7851 1.08256C23.9471 1.17277 24.0912 1.26298 24.1812 1.38928C24.2712 1.51558 24.3433 1.65991 24.3613 1.8223C24.3973 1.98468 24.3793 2.1651 24.3253 2.34553C24.2352 2.65225 24.0552 2.8868 23.8031 3.03114C23.551 3.19352 23.1549 3.19352 22.6508 3.03114L21.7325 2.7605L21.3004 4.22194L20.8142 4.0776ZM21.8585 2.32748L22.7948 2.61616C23.1009 2.70637 23.335 2.72442 23.497 2.6342C23.6591 2.56203 23.7671 2.4177 23.8391 2.20119C23.8931 2.05685 23.8931 1.91251 23.8391 1.78621C23.8031 1.65991 23.7131 1.55166 23.605 1.47949C23.533 1.42536 23.389 1.37124 23.1729 1.31711L22.2546 1.04647L21.8585 2.32748Z" fill="white"/>
<path d="M23.6411 4.90758L26.738 2.32751L27.2062 2.59815L26.72 6.63965L26.2339 6.36901L26.4139 5.16017L25.0455 4.38435L24.1273 5.17821L23.6411 4.90758ZM25.3336 4.07763L26.4499 4.70911L26.612 3.60852C26.666 3.26572 26.72 2.99508 26.756 2.79662C26.594 2.97704 26.4139 3.15746 26.2339 3.31985L25.3336 4.07763Z" fill="white"/>
<path d="M27.188 7.01847L29.7808 4.29407L30.9871 5.44878C31.2212 5.68333 31.3832 5.8818 31.4733 6.04418C31.5453 6.20656 31.5633 6.40503 31.5273 6.58545C31.4913 6.78392 31.3832 6.9463 31.2572 7.10868C31.0771 7.30715 30.8611 7.39736 30.609 7.4154C30.3569 7.43344 30.0869 7.32519 29.7808 7.10868C29.8348 7.25302 29.8528 7.36127 29.8708 7.45149C29.8888 7.64995 29.8708 7.86646 29.8168 8.10101L29.5827 9.29181L29.1326 8.85879L29.3126 7.95667C29.3666 7.68604 29.4026 7.48757 29.4026 7.32519C29.4207 7.18085 29.4207 7.05455 29.3846 6.96434C29.3666 6.87413 29.3306 6.80196 29.2946 6.72979C29.2586 6.67566 29.2046 6.62154 29.1146 6.53132L28.7004 6.13439L27.5481 7.34323L27.188 7.01847ZM28.9885 5.84571L29.7628 6.58545C29.9248 6.74783 30.0688 6.85609 30.1949 6.91021C30.3209 6.96434 30.447 6.98238 30.555 6.9463C30.681 6.91022 30.7711 6.85609 30.8611 6.76588C30.9871 6.63958 31.0411 6.49524 31.0231 6.31482C31.0051 6.13439 30.8971 5.95397 30.699 5.77354L29.8348 4.94359L28.9885 5.84571Z" fill="white"/>
<path d="M30.4111 10.6269L33.202 8.8407L32.5358 7.79424L32.9139 7.55969L34.5163 10.0676L34.1382 10.3021L33.472 9.25568L30.6812 11.0419L30.4111 10.6269Z" fill="white"/>
<path d="M31.9956 13.7484L33.5081 13.2251L35.0745 11.1322L35.2726 11.7096L34.4443 12.7921C34.2823 12.9906 34.1382 13.189 33.9762 13.3695C34.1923 13.4055 34.4443 13.4597 34.7324 13.5318L36.0108 13.8566L36.2089 14.3979L33.6701 13.6942L32.1757 14.2175L31.9956 13.7484Z" fill="white"/>
</svg>
