<svg width="37" height="58" viewBox="0 0 37 58" fill="none" xmlns="http://www.w3.org/2000/svg">
<path d="M15.75 2H21.25L21.3905 2C23.8635 1.99992 25.9214 1.99985 27.5541 2.22159C29.2773 2.45561 30.8222 2.96942 32.0604 4.2201C33.2958 5.46799 33.8008 7.02029 34.0312 8.75128C34.2501 10.3965 34.2501 12.4717 34.25 14.9727L34.25 15.1111V42.8889L34.25 43.0273C34.2501 45.5283 34.2501 47.6035 34.0312 49.2487C33.8008 50.9797 33.2958 52.532 32.0604 53.7799C30.8222 55.0306 29.2773 55.5444 27.5541 55.7784C25.9214 56.0001 23.8634 56.0001 21.3904 56H21.25H15.75H15.6096C13.1366 56.0001 11.0786 56.0001 9.44587 55.7784C7.72267 55.5444 6.17778 55.0306 4.93961 53.7799C3.7042 52.532 3.19925 50.9797 2.96885 49.2487C2.74986 47.6035 2.74992 45.5283 2.75 43.0273L2.75 42.8889V15.1111L2.75 14.9727C2.74992 12.4717 2.74986 10.3965 2.96885 8.75128C3.19925 7.02029 3.7042 5.46799 4.93961 4.2201C6.17778 2.96942 7.72267 2.45561 9.44587 2.22159C11.0786 1.99985 13.1365 1.99992 15.6095 2L15.75 2Z" stroke="#E0E9FF" stroke-width="4"/>
<path d="M32.25 43.1667H4.75" stroke="#E0E9FF" stroke-width="4"/>
</svg>
