<svg width="55" height="44" viewBox="0 0 55 44" fill="none" xmlns="http://www.w3.org/2000/svg">
<g clip-path="url(#clip0)">
<path d="M14.0774 2.52381H40.9227C43.5102 2.52381 45.2497 2.52806 46.5475 2.70255C47.7878 2.8693 48.3213 3.15784 48.674 3.51058C49.0267 3.86332 49.3153 4.39681 49.482 5.6371C49.6565 6.93492 49.6608 8.67437 49.6608 11.2619V33.4226H5.33936V11.2619C5.33936 8.67437 5.3436 6.93492 5.51809 5.6371C5.68484 4.39681 5.97339 3.86332 6.32613 3.51058C6.67887 3.15784 7.21235 2.8693 8.45264 2.70255C9.75046 2.52806 11.4899 2.52381 14.0774 2.52381Z" stroke="#E0E9FF" stroke-width="4"/>
<path d="M49.8711 33.4226H5.12904C3.03605 33.4226 1.33936 35.1193 1.33936 37.2123C1.33936 40.2937 3.83732 42.7917 6.91872 42.7917H48.0814C51.1628 42.7917 53.6608 40.2937 53.6608 37.2123C53.6608 35.1193 51.9641 33.4226 49.8711 33.4226Z" stroke="#E0E9FF" stroke-width="4"/>
</g>
<defs>
<clipPath id="clip0">
<rect width="55" height="44" fill="white" transform="matrix(1 0 0 -1 0 44)"/>
</clipPath>
</defs>
</svg>
