<svg width="49" height="49" viewBox="0 0 49 49" fill="none" xmlns="http://www.w3.org/2000/svg">
<path d="M2.11597 10.1159C2.11597 6.34467 2.11597 4.45905 3.28754 3.28748C4.45911 2.11591 6.34473 2.11591 10.116 2.11591H38.8841C42.6554 2.11591 44.541 2.11591 45.7126 3.28748C46.8841 4.45905 46.8841 6.34467 46.8841 10.1159V38.8841C46.8841 42.6553 46.8841 44.5409 45.7126 45.7125C44.541 46.8841 42.6554 46.8841 38.8841 46.8841H10.116C6.34473 46.8841 4.45911 46.8841 3.28754 45.7125C2.11597 44.5409 2.11597 42.6553 2.11597 38.8841V10.1159Z" stroke="#E0E9FF" stroke-width="4"/>
<ellipse cx="35.6921" cy="13.308" rx="3.73068" ry="3.73068" fill="#E0E9FF"/>
<path d="M32.4485 24.5C32.4485 28.8898 28.8898 32.4485 24.5 32.4485C20.1102 32.4485 16.5515 28.8898 16.5515 24.5C16.5515 20.1102 20.1102 16.5515 24.5 16.5515C28.8898 16.5515 32.4485 20.1102 32.4485 24.5Z" stroke="#E0E9FF" stroke-width="4"/>
</svg>
