<svg width="43" height="53" viewBox="0 0 43 53" fill="none" xmlns="http://www.w3.org/2000/svg">
<path d="M24.6452 2.20834H13.4465C8.38448 2.20834 5.85349 2.20834 4.28093 3.78942C2.70837 5.3705 2.70837 7.91521 2.70837 13.0046V39.9954C2.70837 45.0848 2.70837 47.6295 4.28093 49.2106C5.85349 50.7917 8.38448 50.7917 13.4465 50.7917H29.5536C34.6156 50.7917 37.1466 50.7917 38.7192 49.2106C40.2917 47.6295 40.2917 45.0848 40.2917 39.9954V17.9397C40.2917 16.8364 40.2917 16.2848 40.0874 15.7888C39.883 15.2928 39.4951 14.9027 38.7192 14.1226L28.4417 3.78942C27.6657 3.0093 27.2778 2.61925 26.7844 2.41379C26.2911 2.20834 25.7425 2.20834 24.6452 2.20834Z" stroke="#E0E9FF" stroke-width="4"/>
<path d="M24.1846 2.20834V13.0046C24.1846 15.5493 24.1846 16.8217 24.9708 17.6122C25.7571 18.4028 27.0226 18.4028 29.5536 18.4028H40.2917" stroke="#E0E9FF" stroke-width="4"/>
</svg>
